<svg width="42" height="46" viewBox="0 0 42 46" fill="none" xmlns="http://www.w3.org/2000/svg">
<path fill-rule="evenodd" clip-rule="evenodd" d="M27 2.46414C23.2872 0.320547 18.7128 0.320547 15 2.46414L6.21539 7.53594C2.50258 9.67953 0.215391 13.6411 0.215391 17.9282V28.0718C0.215391 32.359 2.50258 36.3205 6.21539 38.4641L15 43.5359C18.7128 45.6795 23.2872 45.6795 27 43.5359L35.7846 38.4641C39.4974 36.3205 41.7846 32.359 41.7846 28.0718V17.9282C41.7846 13.6411 39.4974 9.67953 35.7846 7.53594L27 2.46414ZM27.5566 35.3477C29.3848 34.7032 30.7734 33.8536 31.7227 32.7989V22.2871H21.2637V26.5235H25.5527V30.4961C24.7676 31.211 23.5723 31.5684 21.9668 31.5684C20.0918 31.5684 18.7148 30.9297 17.8359 29.6524C16.9688 28.3633 16.5352 26.4414 16.5352 23.8868V22.3399C16.5469 19.9024 16.9746 18.0274 17.8184 16.7149C18.6621 15.4024 19.8574 14.7461 21.4043 14.7461C22.6934 14.7461 23.6895 15.0508 24.3926 15.6602C25.0957 16.2696 25.5527 17.2891 25.7637 18.7188H31.7051C31.4121 15.8243 30.3809 13.6504 28.6113 12.1973C26.8535 10.7325 24.3809 10 21.1934 10C19.0137 10 17.0918 10.5098 15.4277 11.5293C13.7754 12.5371 12.5039 13.9844 11.6133 15.8711C10.7227 17.7461 10.2773 19.9434 10.2773 22.4629L10.2949 24.6778C10.4355 28.334 11.5078 31.1875 13.5117 33.2383C15.5156 35.2891 18.1934 36.3145 21.5449 36.3145C23.7246 36.3145 25.7285 35.9922 27.5566 35.3477Z" fill="#20D489"/>
</svg>
