<svg width="48" height="48" viewBox="0 0 48 48" fill="none" xmlns="http://www.w3.org/2000/svg">
<path d="M18 3.4641C21.7128 1.32051 26.2872 1.32051 30 3.4641L38.7846 8.5359C42.4974 10.6795 44.7846 14.641 44.7846 18.9282V29.0718C44.7846 33.359 42.4974 37.3205 38.7846 39.4641L30 44.5359C26.2872 46.6795 21.7128 46.6795 18 44.5359L9.21539 39.4641C5.50258 37.3205 3.21539 33.359 3.21539 29.0718V18.9282C3.21539 14.641 5.50258 10.6795 9.21539 8.5359L18 3.4641Z" fill="#20D489"/>
<path d="M30.9214 30.6929C30.2785 31.5311 29.3874 32.1659 28.248 32.5972C27.1087 33.0285 25.8148 33.2441 24.3662 33.2441C22.877 33.2441 21.5586 32.9064 20.4111 32.231C19.2637 31.5555 18.3766 30.5911 17.75 29.3379C17.1315 28.0765 16.8101 26.6076 16.7856 24.9312V23.5396C16.7856 20.854 17.4285 18.7585 18.7144 17.2529C20.0002 15.7393 21.7946 14.9824 24.0977 14.9824C26.0752 14.9824 27.6458 15.4707 28.8096 16.4473C29.9733 17.4238 30.6732 18.8317 30.9092 20.6709H27.8818C27.54 18.5306 26.299 17.4604 24.1587 17.4604C22.7752 17.4604 21.7214 17.9609 20.9971 18.9619C20.2809 19.9548 19.9106 21.4155 19.8862 23.3442V24.7114C19.8862 26.632 20.2891 28.1253 21.0947 29.1914C21.9085 30.2493 23.0356 30.7783 24.4761 30.7783C26.0549 30.7783 27.1779 30.4202 27.8452 29.7041V26.2251H24.1831V23.8813H30.9214V30.6929Z" fill="white"/>
</svg>
