<svg width="95" height="21" viewBox="0 0 95 21" fill="none" xmlns="http://www.w3.org/2000/svg">
<path d="M13.728 7.52C13.3987 6.91333 12.922 6.454 12.298 6.142C11.6913 5.81267 10.972 5.648 10.14 5.648C8.70133 5.648 7.54867 6.12467 6.682 7.078C5.81533 8.014 5.382 9.27067 5.382 10.848C5.382 12.5293 5.83267 13.8467 6.734 14.8C7.65267 15.736 8.90933 16.204 10.504 16.204C11.596 16.204 12.5147 15.9267 13.26 15.372C14.0227 14.8173 14.5773 14.02 14.924 12.98H9.282V9.704H18.954V13.838C18.6247 14.9473 18.0613 15.9787 17.264 16.932C16.484 17.8853 15.4873 18.6567 14.274 19.246C13.0607 19.8353 11.6913 20.13 10.166 20.13C8.36333 20.13 6.75133 19.74 5.33 18.96C3.926 18.1627 2.82533 17.062 2.028 15.658C1.248 14.254 0.858 12.6507 0.858 10.848C0.858 9.04533 1.248 7.442 2.028 6.038C2.82533 4.61667 3.926 3.516 5.33 2.736C6.734 1.93867 8.33733 1.54 10.14 1.54C12.324 1.54 14.1613 2.06867 15.652 3.126C17.16 4.18333 18.1567 5.648 18.642 7.52H13.728ZM25.8627 7.91C26.3827 7.11267 27.0327 6.48867 27.8127 6.038C28.5927 5.57 29.4594 5.336 30.4127 5.336V10.042H29.1907C28.0814 10.042 27.2494 10.2847 26.6947 10.77C26.14 11.238 25.8627 12.07 25.8627 13.266V20H21.4167V5.492H25.8627V7.91ZM31.6538 12.72C31.6538 11.2293 31.9311 9.92067 32.4858 8.794C33.0578 7.66733 33.8291 6.80067 34.7998 6.194C35.7704 5.58733 36.8538 5.284 38.0498 5.284C39.0724 5.284 39.9651 5.492 40.7278 5.908C41.5078 6.324 42.1058 6.87 42.5218 7.546V5.492H46.9678V20H42.5218V17.946C42.0884 18.622 41.4818 19.168 40.7018 19.584C39.9391 20 39.0464 20.208 38.0238 20.208C36.8451 20.208 35.7704 19.9047 34.7998 19.298C33.8291 18.674 33.0578 17.7987 32.4858 16.672C31.9311 15.528 31.6538 14.2107 31.6538 12.72ZM42.5218 12.746C42.5218 11.6367 42.2098 10.7613 41.5858 10.12C40.9791 9.47867 40.2338 9.158 39.3498 9.158C38.4658 9.158 37.7118 9.47867 37.0878 10.12C36.4811 10.744 36.1778 11.6107 36.1778 12.72C36.1778 13.8293 36.4811 14.7133 37.0878 15.372C37.7118 16.0133 38.4658 16.334 39.3498 16.334C40.2338 16.334 40.9791 16.0133 41.5858 15.372C42.2098 14.7307 42.5218 13.8553 42.5218 12.746ZM49.3003 12.72C49.3003 11.2293 49.5776 9.92067 50.1323 8.794C50.7043 7.66733 51.4756 6.80067 52.4463 6.194C53.4169 5.58733 54.5003 5.284 55.6963 5.284C56.6496 5.284 57.5163 5.48333 58.2963 5.882C59.0936 6.28067 59.7176 6.818 60.1683 7.494V0.76H64.6143V20H60.1683V17.92C59.7523 18.6133 59.1543 19.168 58.3743 19.584C57.6116 20 56.7189 20.208 55.6963 20.208C54.5003 20.208 53.4169 19.9047 52.4463 19.298C51.4756 18.674 50.7043 17.7987 50.1323 16.672C49.5776 15.528 49.3003 14.2107 49.3003 12.72ZM60.1683 12.746C60.1683 11.6367 59.8563 10.7613 59.2323 10.12C58.6256 9.47867 57.8803 9.158 56.9963 9.158C56.1123 9.158 55.3583 9.47867 54.7343 10.12C54.1276 10.744 53.8243 11.6107 53.8243 12.72C53.8243 13.8293 54.1276 14.7133 54.7343 15.372C55.3583 16.0133 56.1123 16.334 56.9963 16.334C57.8803 16.334 58.6256 16.0133 59.2323 15.372C59.8563 14.7307 60.1683 13.8553 60.1683 12.746ZM81.5067 12.512C81.5067 12.928 81.4808 13.3613 81.4288 13.812H71.3668C71.4361 14.7133 71.7221 15.4067 72.2248 15.892C72.7448 16.36 73.3774 16.594 74.1228 16.594C75.2321 16.594 76.0034 16.126 76.4368 15.19H81.1688C80.9261 16.1433 80.4841 17.0013 79.8428 17.764C79.2188 18.5267 78.4301 19.1247 77.4768 19.558C76.5234 19.9913 75.4574 20.208 74.2788 20.208C72.8574 20.208 71.5921 19.9047 70.4828 19.298C69.3734 18.6913 68.5068 17.8247 67.8828 16.698C67.2588 15.5713 66.9468 14.254 66.9468 12.746C66.9468 11.238 67.2501 9.92067 67.8568 8.794C68.4808 7.66733 69.3474 6.80067 70.4568 6.194C71.5661 5.58733 72.8401 5.284 74.2788 5.284C75.6828 5.284 76.9308 5.57867 78.0228 6.168C79.1148 6.75733 79.9641 7.598 80.5708 8.69C81.1948 9.782 81.5067 11.056 81.5067 12.512ZM76.9568 11.342C76.9568 10.5793 76.6968 9.97267 76.1768 9.522C75.6568 9.07133 75.0068 8.846 74.2268 8.846C73.4814 8.846 72.8488 9.06267 72.3288 9.496C71.8261 9.92933 71.5141 10.5447 71.3928 11.342H76.9568ZM88.0122 16.334H94.3042V20H83.0462V16.464L89.0782 9.158H83.0982V5.492H94.1742V9.028L88.0122 16.334Z" fill="#181C32"/>
</svg>
