<svg width="1279" height="1000" viewBox="0 0 1279 1000" fill="none" xmlns="http://www.w3.org/2000/svg">
<path fill-rule="evenodd" clip-rule="evenodd" d="M400.939 684.35L691.587 302.094L840.818 323.189L614.53 544.496L400.939 693.335V684.35Z" fill="#57B5E8"/>
<path fill-rule="evenodd" clip-rule="evenodd" d="M152.483 927.045C423.793 664.036 599.49 492.636 679.477 413.04C747.647 345.359 835.446 215.563 942.877 23.7515C946.002 18.1847 950.788 9.68791 957.136 -1.73877L1279.72 -0.176147L1280.01 212.829L388.048 800.18L152.483 927.045Z" fill="#77CEFD"/>
<path d="M789.642 390.284C791.422 390.284 792.865 388.972 792.865 387.354C792.865 385.736 791.422 384.424 789.642 384.424C787.862 384.424 786.419 385.736 786.419 387.354C786.419 388.972 787.862 390.284 789.642 390.284Z" fill="#F279A2"/>
<path fill-rule="evenodd" clip-rule="evenodd" d="M239.599 830.748L552.612 595.476C575.856 519.591 606.229 472.81 643.732 455.133C699.987 428.666 714.636 485.995 714.636 483.358C714.636 480.721 726.453 222.986 810.933 203.648C895.412 184.311 861.523 291.741 883.985 220.935C906.35 150.128 962.703 41.1355 1048.45 50.0229C1105.58 55.8828 1132.15 133.037 1128.24 281.291L433.755 771.271L239.599 830.748Z" fill="#D5F1FB"/>
<path fill-rule="evenodd" clip-rule="evenodd" d="M316.558 788.167L1280.01 118.095V1000H0.615234L316.558 788.167Z" fill="white"/>
<path opacity="0.344" fill-rule="evenodd" clip-rule="evenodd" d="M567.066 693.335L809.077 539.808L915.824 548.5L835.056 599.187L909.476 606.219L854.393 626.24L777.043 636.983L667.562 687.964L567.066 693.335Z" fill="#ACE1FE"/>
<path fill-rule="evenodd" clip-rule="evenodd" d="M668.441 708.669L1050.6 438.628C1063.1 413.724 1064.86 401.223 1055.97 401.223C1047.08 401.223 1033.51 418.314 1015.25 452.594C1010.17 446.832 1003.82 445.66 996.202 449.273C988.682 452.789 980.38 464.411 971.493 483.944C969.735 477.498 966.512 476.717 961.824 481.6C957.136 486.483 953.132 493.515 949.811 502.598L661.41 704.078L668.441 708.669Z" fill="#ACE1FE"/>
<path fill-rule="evenodd" clip-rule="evenodd" d="M252.002 924.018L634.161 653.977C646.662 629.073 648.42 616.572 639.532 616.572C630.645 616.572 617.07 633.663 598.807 667.943C593.728 662.181 587.38 661.009 579.762 664.622C572.144 668.236 563.941 679.76 555.053 699.293C553.295 692.847 550.072 692.066 545.384 696.949C540.697 701.832 536.692 708.864 533.372 717.947L244.97 919.33L252.002 924.018Z" fill="#ACE1FE"/>
<path fill-rule="evenodd" clip-rule="evenodd" d="M725.184 446.05C720.692 445.562 717.078 446.929 714.148 450.054C711.218 453.18 709.851 457.965 709.851 464.411L744.229 483.748L725.184 446.05Z" fill="#242441"/>
<path fill-rule="evenodd" clip-rule="evenodd" d="M718.501 462.721C674.454 465.846 648.671 468.874 641.053 471.706C633.435 474.539 605.21 492.313 555.988 524.835L560.969 544.857C586.557 542.415 606.773 538.215 621.716 532.16C644.081 523.175 649.062 510.772 657.754 510.772C666.446 510.772 695.452 521.808 709.808 518.78C719.38 516.729 732.271 505.986 748.483 486.454L718.501 462.721Z" fill="#0F4FA4"/>
<mask id="mask0" mask-type="alpha" maskUnits="userSpaceOnUse" x="555" y="462" width="194" height="83">
<path fill-rule="evenodd" clip-rule="evenodd" d="M718.501 462.721C674.454 465.846 648.671 468.874 641.053 471.706C633.435 474.539 605.21 492.313 555.988 524.835L560.969 544.857C586.557 542.415 606.773 538.215 621.716 532.16C644.081 523.175 649.062 510.772 657.754 510.772C666.446 510.772 695.452 521.808 709.808 518.78C719.38 516.729 732.271 505.986 748.483 486.454L718.501 462.721Z" fill="white"/>
</mask>
<g mask="url(#mask0)">
<path fill-rule="evenodd" clip-rule="evenodd" d="M539.971 535.774C596.226 527.961 636.756 513.311 661.465 491.728C686.174 470.144 722.505 480.203 770.653 521.808L642.421 603.944L634.119 609.217L555.695 581.188L539.971 538.802V535.774Z" fill="#16498D"/>
</g>
<mask id="mask1" mask-type="alpha" maskUnits="userSpaceOnUse" x="555" y="462" width="194" height="83">
<path fill-rule="evenodd" clip-rule="evenodd" d="M718.501 462.721C674.454 465.846 648.671 468.874 641.053 471.706C633.435 474.539 605.21 492.313 555.988 524.835L560.969 544.857C586.557 542.415 606.773 538.215 621.716 532.16C644.081 523.175 649.062 510.772 657.754 510.772C666.446 510.772 695.452 521.808 709.808 518.78C719.38 516.729 732.271 505.986 748.483 486.454L718.501 462.721Z" fill="white"/>
</mask>
<g mask="url(#mask1)">
<path fill-rule="evenodd" clip-rule="evenodd" d="M657.851 517.315C675.528 511.26 695.647 509.99 718.403 513.506C741.061 516.924 751.706 527.57 750.241 545.149L688.615 573.374L657.851 517.315Z" fill="#242441"/>
</g>
<path d="M592.458 547.621V596.453H560.815V649.484H501.729V596.453H390.294V552.895L460.222 403.371H521.359L455.631 547.621H501.729V495.273H560.815V547.621H592.458ZM736.806 401.32C771.574 401.32 798.334 412.063 817.183 433.549C835.935 455.035 845.408 485.897 845.408 526.135C845.408 566.372 836.032 597.234 817.183 618.916C798.432 640.499 771.574 651.34 736.806 651.34C701.549 651.34 674.496 640.499 655.745 618.916C636.993 597.332 627.52 566.372 627.52 526.135C627.52 485.897 636.896 455.035 655.745 433.549C674.594 412.063 701.647 401.32 736.806 401.32ZM735.731 448.199C720.203 448.199 709.069 454.254 702.33 466.364C695.592 478.475 692.173 498.203 692.173 525.744C692.173 553.481 695.592 573.306 702.33 585.417C709.167 597.527 720.301 603.582 735.731 603.582C750.772 603.582 761.71 597.527 768.644 585.319C775.578 573.111 778.997 553.285 778.997 525.842C778.997 498.398 775.578 478.572 768.644 466.462C761.71 454.254 750.674 448.199 735.731 448.199ZM1099.33 547.621V596.453H1067.69V649.484H1008.6V596.453H897.17V552.895L967.097 403.371H1028.23L962.507 547.621H1008.6V495.273H1067.69V547.621H1099.33Z" fill="#E6553F"/>
<path fill-rule="evenodd" clip-rule="evenodd" d="M692.076 923.822L892.092 765.997C902.054 733.573 914.945 713.649 930.962 706.129C954.987 694.8 961.238 719.314 961.238 718.142C961.238 717.068 966.316 607 1002.35 598.797C1038.39 590.593 1024.04 636.397 1033.51 606.121C1043.08 575.943 1067.11 529.358 1103.63 533.166C1128.05 535.706 1139.38 568.618 1137.72 631.807L748.331 924.603L692.076 923.822Z" fill="#77CEFD"/>
<path fill-rule="evenodd" clip-rule="evenodd" d="M584.06 733.182L779.387 609.051L792.572 617.06L604.764 745.878L584.06 733.182Z" fill="#184888"/>
<path fill-rule="evenodd" clip-rule="evenodd" d="M678.696 652.107C679.575 660.701 677.427 666.757 672.25 670.175C669.028 672.323 657.699 674.374 653.89 685.313C652.229 690.001 656.136 697.911 667.074 696.251C678.11 694.688 692.565 680.429 693.834 678.867C694.713 677.793 695.201 671.444 695.494 659.822L678.696 652.107Z" fill="white"/>
<mask id="mask2" mask-type="alpha" maskUnits="userSpaceOnUse" x="653" y="652" width="43" height="45">
<path fill-rule="evenodd" clip-rule="evenodd" d="M678.696 652.107C679.575 660.701 677.427 666.757 672.25 670.175C669.028 672.323 657.699 674.374 653.89 685.313C652.229 690.001 656.136 697.911 667.074 696.251C678.11 694.688 692.565 680.429 693.834 678.867C694.713 677.793 695.201 671.444 695.494 659.822L678.696 652.107Z" fill="white"/>
</mask>
<g mask="url(#mask2)">
<path fill-rule="evenodd" clip-rule="evenodd" d="M652.131 696.446C672.152 694.2 684.165 687.852 688.169 677.402C692.174 666.952 695.689 658.553 698.619 652.107L728.016 675.449L677.915 720.862L652.131 696.446Z" fill="#BFDFF3"/>
</g>
<path d="M654.183 686.499C656.429 680.932 660.042 676.635 665.219 673.51C670.297 670.385 674.497 665.697 677.622 659.544" stroke="#242441" stroke-width="0.704" stroke-linecap="round"/>
<path fill-rule="evenodd" clip-rule="evenodd" d="M734.671 479.971C704.199 521.283 688.085 546.285 686.522 554.977C684.96 563.669 681.444 599.414 675.877 662.114C677.928 664.751 680.662 666.607 684.178 667.486C687.694 668.365 691.991 668.853 696.875 668.853C711.329 639.944 719.337 617.384 720.9 601.074C723.244 576.756 758.305 550.387 768.365 537.3C775.006 528.608 784.284 508.294 796.101 476.26L734.671 479.971Z" fill="#0F58BA"/>
<mask id="mask3" mask-type="alpha" maskUnits="userSpaceOnUse" x="675" y="476" width="122" height="193">
<path fill-rule="evenodd" clip-rule="evenodd" d="M734.671 479.971C704.199 521.283 688.085 546.285 686.522 554.977C684.96 563.669 681.444 599.414 675.877 662.114C677.928 664.751 680.662 666.607 684.178 667.486C687.694 668.365 691.991 668.853 696.875 668.853C711.329 639.944 719.337 617.384 720.9 601.074C723.244 576.756 758.305 550.387 768.365 537.3C775.006 528.608 784.284 508.294 796.101 476.26L734.671 479.971Z" fill="white"/>
</mask>
<g mask="url(#mask3)">
<path fill-rule="evenodd" clip-rule="evenodd" d="M688.28 677.447C702.735 615.431 714.064 579.49 722.365 569.626C734.768 554.977 760.454 527.24 764.458 503.605C767.095 487.784 791.609 490.323 837.901 511.321L755.668 630.764L706.543 682.526L688.28 677.447Z" fill="#0F4FA4"/>
</g>
<path fill-rule="evenodd" clip-rule="evenodd" d="M729.969 447.906L715.906 462.555C725.281 477.889 735.732 487.362 747.256 490.878C758.976 494.491 753.116 480.135 729.969 447.906Z" fill="#00B780"/>
<path d="M745.704 259.553C746.732 257.97 744.962 254.996 741.75 252.91C738.538 250.825 735.101 250.417 734.073 252.001C733.045 253.584 734.815 256.558 738.027 258.644C741.239 260.73 744.676 261.137 745.704 259.553Z" stroke="#0F58BA" stroke-width="1.76"/>
<path fill-rule="evenodd" clip-rule="evenodd" d="M822.531 535.833L806.026 543.94C805.049 545.795 805.928 547.456 808.76 548.823C811.593 550.19 816.378 548.823 823.215 544.623L822.531 535.833Z" fill="#D3583D"/>
<path fill-rule="evenodd" clip-rule="evenodd" d="M849.584 572.359C852.026 571.48 853.393 571.871 853.588 573.727C853.784 575.582 852.905 577.926 850.951 581.051L848.314 576.07L849.584 572.359Z" fill="#D3583D"/>
<path fill-rule="evenodd" clip-rule="evenodd" d="M812.472 578.024L815.207 587.009L818.039 590.721C819.699 591.307 821.262 590.818 822.532 589.158C823.899 587.498 822.434 582.029 818.137 572.848L812.472 578.024Z" fill="#D76A27"/>
<path fill-rule="evenodd" clip-rule="evenodd" d="M834.153 579.684C833.274 587.205 833.274 591.599 834.153 592.674C835.521 594.334 837.181 594.627 839.134 593.357C840.502 592.478 841.381 586.619 841.771 575.68L834.153 579.684Z" fill="#D76A27"/>
<path fill-rule="evenodd" clip-rule="evenodd" d="M844.505 576.071L846.556 581.443C848.607 582.322 850.072 582.126 851.244 580.759C852.318 579.392 852.123 576.852 850.561 573.043L844.505 576.071Z" fill="#D76A27"/>
<path fill-rule="evenodd" clip-rule="evenodd" d="M823.41 580.465L824.68 589.841L826.145 593.455C827.024 595.017 828.489 595.115 830.442 593.748C832.395 592.38 832.298 585.739 830.149 573.727L823.41 580.465Z" fill="#D76A27"/>
<path fill-rule="evenodd" clip-rule="evenodd" d="M820.592 532.317C814.147 546.869 811.021 554.878 811.119 556.343C811.217 557.71 811.607 564.546 812.291 576.852C812.389 579.001 814.147 580.661 816.295 580.661C818.444 580.661 820.299 579.001 820.495 576.852L821.667 562.691L823.132 579.88C823.327 581.931 824.89 583.689 826.94 583.982C828.796 584.275 830.456 583.005 830.749 581.149C830.749 581.052 830.749 581.052 830.749 580.954L832.214 566.207L833.875 581.247C834.07 582.907 835.34 584.275 836.902 584.568L837.684 584.665C839.441 584.958 841.102 583.884 841.395 582.126C841.395 582.028 841.395 581.931 841.395 581.833L842.664 566.402L844.325 575.875C844.618 577.34 845.79 578.317 847.255 578.317C848.72 578.317 849.989 577.243 850.184 575.875L852.138 565.035C854.872 559.273 856.826 554.682 857.802 551.46C858.779 548.237 859.365 544.135 859.463 539.154L820.592 532.317Z" fill="#F56A15"/>
<mask id="mask4" mask-type="alpha" maskUnits="userSpaceOnUse" x="811" y="532" width="49" height="53">
<path fill-rule="evenodd" clip-rule="evenodd" d="M820.592 532.317C814.147 546.869 811.021 554.878 811.119 556.343C811.217 557.71 811.607 564.546 812.291 576.852C812.389 579.001 814.147 580.661 816.295 580.661C818.444 580.661 820.299 579.001 820.495 576.852L821.667 562.691L823.132 579.88C823.327 581.931 824.89 583.689 826.94 583.982C828.796 584.275 830.456 583.005 830.749 581.149C830.749 581.052 830.749 581.052 830.749 580.954L832.214 566.207L833.875 581.247C834.07 582.907 835.34 584.275 836.902 584.568L837.684 584.665C839.441 584.958 841.102 583.884 841.395 582.126C841.395 582.028 841.395 581.931 841.395 581.833L842.664 566.402L844.325 575.875C844.618 577.34 845.79 578.317 847.255 578.317C848.72 578.317 849.989 577.243 850.184 575.875L852.138 565.035C854.872 559.273 856.826 554.682 857.802 551.46C858.779 548.237 859.365 544.135 859.463 539.154L820.592 532.317Z" fill="white"/>
</mask>
<g mask="url(#mask4)">
<path fill-rule="evenodd" clip-rule="evenodd" d="M817.858 524.309C809.849 541.009 807.798 549.994 811.802 551.361C817.858 553.315 837.488 558.686 846.864 555.073C853.114 552.533 857.509 543.06 859.951 526.653L817.858 524.309Z" fill="#F39155"/>
</g>
<path d="M830.54 563.57C831.028 563.667 831.614 563.667 832.2 563.667C836.497 563.667 837.571 562.691 841.869 563.667C844.799 564.351 847.435 563.96 849.877 562.691M817.843 558.979C819.211 560.933 820.871 562.007 822.824 562.007C824.387 562.007 825.754 562.495 827.219 562.886L817.843 558.979Z" stroke="white" stroke-width="0.704" stroke-linecap="round"/>
<path fill-rule="evenodd" clip-rule="evenodd" d="M611.963 425.51L737.656 255.77C738.242 254.989 739.317 254.793 740.196 255.184C740.977 255.575 741.172 256.551 740.782 257.235C740.782 257.333 740.684 257.333 740.684 257.43L617.53 429.124C616.455 430.686 614.307 431.077 612.744 430.003C611.279 429.026 610.889 427.073 611.768 425.608C611.865 425.608 611.865 425.51 611.963 425.51Z" fill="#0F58BA"/>
<path fill-rule="evenodd" clip-rule="evenodd" d="M664.553 375.824C654.494 367.816 648.634 363.812 646.779 363.812C644.142 363.812 631.836 369.183 631.152 370.16C630.469 371.136 628.515 375.141 627.148 375.531C625.781 375.922 622.851 380.903 622.851 380.903C622.851 380.903 618.749 386.47 618.065 388.52C617.382 390.571 617.772 400.142 619.433 402.486C620.507 404.049 622.46 405.709 625.097 407.467L630.078 400.826L631.055 397.799C635.938 398.287 638.379 399.166 638.379 400.435C638.379 401.705 637.696 402.389 636.329 402.389L629.687 412.057C636.622 412.546 641.505 411.96 644.337 410.397C648.634 408.053 658.694 407.077 664.358 407.077C668.265 407.174 668.265 396.724 664.553 375.824Z" fill="#F56A15"/>
<mask id="mask5" mask-type="alpha" maskUnits="userSpaceOnUse" x="617" y="363" width="51" height="50">
<path fill-rule="evenodd" clip-rule="evenodd" d="M664.553 375.824C654.494 367.816 648.634 363.812 646.779 363.812C644.142 363.812 631.836 369.183 631.152 370.16C630.469 371.136 628.515 375.141 627.148 375.531C625.781 375.922 622.851 380.903 622.851 380.903C622.851 380.903 618.749 386.47 618.065 388.52C617.382 390.571 617.772 400.142 619.433 402.486C620.507 404.049 622.46 405.709 625.097 407.467L630.078 400.826L631.055 397.799C635.938 398.287 638.379 399.166 638.379 400.435C638.379 401.705 637.696 402.389 636.329 402.389L629.687 412.057C636.622 412.546 641.505 411.96 644.337 410.397C648.634 408.053 658.694 407.077 664.358 407.077C668.265 407.174 668.265 396.724 664.553 375.824Z" fill="white"/>
</mask>
<g mask="url(#mask5)">
<path fill-rule="evenodd" clip-rule="evenodd" d="M660.158 406.197C643.262 398.873 635.742 392.232 637.793 386.176C639.844 380.121 646.095 371.527 656.838 360.1L684.867 373.187L660.158 406.197Z" fill="#F39155"/>
</g>
<path fill-rule="evenodd" clip-rule="evenodd" d="M663.164 373.488C684.747 380.129 701.35 382.961 712.972 381.789C730.356 380.129 744.713 373.488 752.721 373.488C758.093 373.488 767.566 374.074 781.142 375.148L818.449 386.184C833.392 390.872 846.479 402.299 857.906 420.562C869.332 438.825 870.407 480.137 861.226 544.693L818.449 535.317C819.817 522.816 821.672 508.655 824.114 492.638C826.555 476.621 824.7 464.12 818.449 455.232C801.065 493.907 789.345 514.026 783.388 515.589C774.403 517.933 755.651 515.296 742.662 496.935C738.756 491.466 735.923 473.593 733.677 464.218C731.431 455.135 727.036 449.08 720.297 446.247C724.79 445.173 728.794 442.536 732.31 438.532C735.826 434.528 738.463 429.547 740.025 423.492C720.004 428.57 701.839 428.57 685.626 423.492C669.414 418.413 657.304 414.018 649.491 410.209L663.164 373.488Z" fill="#FFBC4C"/>
<mask id="mask6" mask-type="alpha" maskUnits="userSpaceOnUse" x="649" y="373" width="219" height="172">
<path fill-rule="evenodd" clip-rule="evenodd" d="M663.164 373.488C684.747 380.129 701.35 382.961 712.972 381.789C730.356 380.129 744.713 373.488 752.721 373.488C758.093 373.488 767.566 374.074 781.142 375.148L818.449 386.184C833.392 390.872 846.479 402.299 857.906 420.562C869.332 438.825 870.407 480.137 861.226 544.693L818.449 535.317C819.817 522.816 821.672 508.655 824.114 492.638C826.555 476.621 824.7 464.12 818.449 455.232C801.065 493.907 789.345 514.026 783.388 515.589C774.403 517.933 755.651 515.296 742.662 496.935C738.756 491.466 735.923 473.593 733.677 464.218C731.431 455.135 727.036 449.08 720.297 446.247C724.79 445.173 728.794 442.536 732.31 438.532C735.826 434.528 738.463 429.547 740.025 423.492C720.004 428.57 701.839 428.57 685.626 423.492C669.414 418.413 657.304 414.018 649.491 410.209L663.164 373.488Z" fill="white"/>
</mask>
<g mask="url(#mask6)">
<path opacity="0.458" fill-rule="evenodd" clip-rule="evenodd" d="M738.365 426.519C754.186 441.657 773.328 450.544 795.791 453.181C829.485 457.186 822.16 464.51 822.844 471.542C823.332 476.23 820.5 482.871 814.542 491.563C799.893 489.61 789.54 486.973 783.485 483.555C769.812 475.937 758.679 460.701 753.112 455.232C743.638 446.149 733.481 441.755 722.348 442.243L738.365 426.519Z" fill="#F39155"/>
</g>
<mask id="mask7" mask-type="alpha" maskUnits="userSpaceOnUse" x="649" y="373" width="219" height="172">
<path fill-rule="evenodd" clip-rule="evenodd" d="M663.164 373.488C684.747 380.129 701.35 382.961 712.972 381.789C730.356 380.129 744.713 373.488 752.721 373.488C758.093 373.488 767.566 374.074 781.142 375.148L818.449 386.184C833.392 390.872 846.479 402.299 857.906 420.562C869.332 438.825 870.407 480.137 861.226 544.693L818.449 535.317C819.817 522.816 821.672 508.655 824.114 492.638C826.555 476.621 824.7 464.12 818.449 455.232C801.065 493.907 789.345 514.026 783.388 515.589C774.403 517.933 755.651 515.296 742.662 496.935C738.756 491.466 735.923 473.593 733.677 464.218C731.431 455.135 727.036 449.08 720.297 446.247C724.79 445.173 728.794 442.536 732.31 438.532C735.826 434.528 738.463 429.547 740.025 423.492C720.004 428.57 701.839 428.57 685.626 423.492C669.414 418.413 657.304 414.018 649.491 410.209L663.164 373.488Z" fill="white"/>
</mask>
<g mask="url(#mask7)">
<path opacity="0.4334" d="M715.609 444.88C729.868 445.759 739.049 451.326 743.346 461.483L743.541 461.971L743.834 462.655C744.225 463.632 744.616 464.706 745.202 466.268L745.983 468.515L746.471 469.784C748.522 475.351 749.694 478.086 751.94 481.602C759.46 493.907 773.719 503.185 800.577 511.292L801.261 509.045C774.891 501.037 761.121 492.052 753.894 480.332L753.698 480.039L753.503 479.648C751.55 476.328 750.378 473.496 748.131 467.44L747.252 465.097L746.862 464.022C746.374 462.655 745.983 461.678 745.495 460.604C740.807 449.47 730.845 443.415 715.805 442.536L715.609 444.88Z" fill="#F39155"/>
</g>
<mask id="mask8" mask-type="alpha" maskUnits="userSpaceOnUse" x="649" y="373" width="219" height="172">
<path fill-rule="evenodd" clip-rule="evenodd" d="M663.164 373.488C684.747 380.129 701.35 382.961 712.972 381.789C730.356 380.129 744.713 373.488 752.721 373.488C758.093 373.488 767.566 374.074 781.142 375.148L818.449 386.184C833.392 390.872 846.479 402.299 857.906 420.562C869.332 438.825 870.407 480.137 861.226 544.693L818.449 535.317C819.817 522.816 821.672 508.655 824.114 492.638C826.555 476.621 824.7 464.12 818.449 455.232C801.065 493.907 789.345 514.026 783.388 515.589C774.403 517.933 755.651 515.296 742.662 496.935C738.756 491.466 735.923 473.593 733.677 464.218C731.431 455.135 727.036 449.08 720.297 446.247C724.79 445.173 728.794 442.536 732.31 438.532C735.826 434.528 738.463 429.547 740.025 423.492C720.004 428.57 701.839 428.57 685.626 423.492C669.414 418.413 657.304 414.018 649.491 410.209L663.164 373.488Z" fill="white"/>
</mask>
<g mask="url(#mask8)">
<path d="M764.148 363.526C744.517 388.04 746.568 407.279 770.398 421.245C806.143 442.243 851.362 418.608 867.379 397.904" stroke="#F8A051" stroke-width="3.52"/>
</g>
<mask id="mask9" mask-type="alpha" maskUnits="userSpaceOnUse" x="649" y="373" width="219" height="172">
<path fill-rule="evenodd" clip-rule="evenodd" d="M663.164 373.488C684.747 380.129 701.35 382.961 712.972 381.789C730.356 380.129 744.713 373.488 752.721 373.488C758.093 373.488 767.566 374.074 781.142 375.148L818.449 386.184C833.392 390.872 846.479 402.299 857.906 420.562C869.332 438.825 870.407 480.137 861.226 544.693L818.449 535.317C819.817 522.816 821.672 508.655 824.114 492.638C826.555 476.621 824.7 464.12 818.449 455.232C801.065 493.907 789.345 514.026 783.388 515.589C774.403 517.933 755.651 515.296 742.662 496.935C738.756 491.466 735.923 473.593 733.677 464.218C731.431 455.135 727.036 449.08 720.297 446.247C724.79 445.173 728.794 442.536 732.31 438.532C735.826 434.528 738.463 429.547 740.025 423.492C720.004 428.57 701.839 428.57 685.626 423.492C669.414 418.413 657.304 414.018 649.491 410.209L663.164 373.488Z" fill="white"/>
</mask>
<g mask="url(#mask9)">
<path fill-rule="evenodd" clip-rule="evenodd" d="M848.92 549.478L877.927 475.058V559.147L848.92 549.478Z" fill="#242441"/>
</g>
<mask id="mask10" mask-type="alpha" maskUnits="userSpaceOnUse" x="649" y="373" width="219" height="172">
<path fill-rule="evenodd" clip-rule="evenodd" d="M663.164 373.488C684.747 380.129 701.35 382.961 712.972 381.789C730.356 380.129 744.713 373.488 752.721 373.488C758.093 373.488 767.566 374.074 781.142 375.148L818.449 386.184C833.392 390.872 846.479 402.299 857.906 420.562C869.332 438.825 870.407 480.137 861.226 544.693L818.449 535.317C819.817 522.816 821.672 508.655 824.114 492.638C826.555 476.621 824.7 464.12 818.449 455.232C801.065 493.907 789.345 514.026 783.388 515.589C774.403 517.933 755.651 515.296 742.662 496.935C738.756 491.466 735.923 473.593 733.677 464.218C731.431 455.135 727.036 449.08 720.297 446.247C724.79 445.173 728.794 442.536 732.31 438.532C735.826 434.528 738.463 429.547 740.025 423.492C720.004 428.57 701.839 428.57 685.626 423.492C669.414 418.413 657.304 414.018 649.491 410.209L663.164 373.488Z" fill="white"/>
</mask>
<g mask="url(#mask10)">
<path d="M854.878 535.61C856.064 535.61 857.026 534.648 857.026 533.461C857.026 532.274 856.064 531.312 854.878 531.312C853.691 531.312 852.729 532.274 852.729 533.461C852.729 534.648 853.691 535.61 854.878 535.61Z" stroke="#242441" stroke-width="0.704" stroke-linecap="round"/>
</g>
<mask id="mask11" mask-type="alpha" maskUnits="userSpaceOnUse" x="649" y="373" width="219" height="172">
<path fill-rule="evenodd" clip-rule="evenodd" d="M663.164 373.488C684.747 380.129 701.35 382.961 712.972 381.789C730.356 380.129 744.713 373.488 752.721 373.488C758.093 373.488 767.566 374.074 781.142 375.148L818.449 386.184C833.392 390.872 846.479 402.299 857.906 420.562C869.332 438.825 870.407 480.137 861.226 544.693L818.449 535.317C819.817 522.816 821.672 508.655 824.114 492.638C826.555 476.621 824.7 464.12 818.449 455.232C801.065 493.907 789.345 514.026 783.388 515.589C774.403 517.933 755.651 515.296 742.662 496.935C738.756 491.466 735.923 473.593 733.677 464.218C731.431 455.135 727.036 449.08 720.297 446.247C724.79 445.173 728.794 442.536 732.31 438.532C735.826 434.528 738.463 429.547 740.025 423.492C720.004 428.57 701.839 428.57 685.626 423.492C669.414 418.413 657.304 414.018 649.491 410.209L663.164 373.488Z" fill="white"/>
</mask>
<g mask="url(#mask11)">
<path fill-rule="evenodd" clip-rule="evenodd" d="M690.607 456.991L637.478 397.416L712.484 435.504L690.607 456.991Z" fill="#FFA452"/>
</g>
<mask id="mask12" mask-type="alpha" maskUnits="userSpaceOnUse" x="649" y="373" width="219" height="172">
<path fill-rule="evenodd" clip-rule="evenodd" d="M663.164 373.488C684.747 380.129 701.35 382.961 712.972 381.789C730.356 380.129 744.713 373.488 752.721 373.488C758.093 373.488 767.566 374.074 781.142 375.148L818.449 386.184C833.392 390.872 846.479 402.299 857.906 420.562C869.332 438.825 870.407 480.137 861.226 544.693L818.449 535.317C819.817 522.816 821.672 508.655 824.114 492.638C826.555 476.621 824.7 464.12 818.449 455.232C801.065 493.907 789.345 514.026 783.388 515.589C774.403 517.933 755.651 515.296 742.662 496.935C738.756 491.466 735.923 473.593 733.677 464.218C731.431 455.135 727.036 449.08 720.297 446.247C724.79 445.173 728.794 442.536 732.31 438.532C735.826 434.528 738.463 429.547 740.025 423.492C720.004 428.57 701.839 428.57 685.626 423.492C669.414 418.413 657.304 414.018 649.491 410.209L663.164 373.488Z" fill="white"/>
</mask>
<g mask="url(#mask12)">
<path opacity="0.2531" fill-rule="evenodd" clip-rule="evenodd" d="M749.01 511.291C740.318 489.512 738.364 472.909 743.052 461.58C750.084 444.587 751.744 423.589 740.025 423.589C738.267 423.589 736.802 426.909 734.653 427.593C729.868 429.058 719.808 433.941 704.573 442.243L749.01 511.291Z" fill="#EF9535"/>
</g>
<mask id="mask13" mask-type="alpha" maskUnits="userSpaceOnUse" x="649" y="373" width="219" height="172">
<path fill-rule="evenodd" clip-rule="evenodd" d="M663.164 373.488C684.747 380.129 701.35 382.961 712.972 381.789C730.356 380.129 744.713 373.488 752.721 373.488C758.093 373.488 767.566 374.074 781.142 375.148L818.449 386.184C833.392 390.872 846.479 402.299 857.906 420.562C869.332 438.825 870.407 480.137 861.226 544.693L818.449 535.317C819.817 522.816 821.672 508.655 824.114 492.638C826.555 476.621 824.7 464.12 818.449 455.232C801.065 493.907 789.345 514.026 783.388 515.589C774.403 517.933 755.651 515.296 742.662 496.935C738.756 491.466 735.923 473.593 733.677 464.218C731.431 455.135 727.036 449.08 720.297 446.247C724.79 445.173 728.794 442.536 732.31 438.532C735.826 434.528 738.463 429.547 740.025 423.492C720.004 428.57 701.839 428.57 685.626 423.492C669.414 418.413 657.304 414.018 649.491 410.209L663.164 373.488Z" fill="white"/>
</mask>
<g mask="url(#mask13)">
<path d="M665.898 423.491L686.603 365.479" stroke="#242441" stroke-width="0.704" stroke-linecap="round"/>
</g>
<mask id="mask14" mask-type="alpha" maskUnits="userSpaceOnUse" x="649" y="373" width="219" height="172">
<path fill-rule="evenodd" clip-rule="evenodd" d="M663.164 373.488C684.747 380.129 701.35 382.961 712.972 381.789C730.356 380.129 744.713 373.488 752.721 373.488C758.093 373.488 767.566 374.074 781.142 375.148L818.449 386.184C833.392 390.872 846.479 402.299 857.906 420.562C869.332 438.825 870.407 480.137 861.226 544.693L818.449 535.317C819.817 522.816 821.672 508.655 824.114 492.638C826.555 476.621 824.7 464.12 818.449 455.232C801.065 493.907 789.345 514.026 783.388 515.589C774.403 517.933 755.651 515.296 742.662 496.935C738.756 491.466 735.923 473.593 733.677 464.218C731.431 455.135 727.036 449.08 720.297 446.247C724.79 445.173 728.794 442.536 732.31 438.532C735.826 434.528 738.463 429.547 740.025 423.492C720.004 428.57 701.839 428.57 685.626 423.492C669.414 418.413 657.304 414.018 649.491 410.209L663.164 373.488Z" fill="white"/>
</mask>
<g mask="url(#mask14)">
<path d="M668.047 383.743C669.233 383.743 670.195 382.781 670.195 381.594C670.195 380.407 669.233 379.445 668.047 379.445C666.86 379.445 665.898 380.407 665.898 381.594C665.898 382.781 666.86 383.743 668.047 383.743Z" stroke="#242441" stroke-width="0.704" stroke-linecap="round"/>
</g>
<path d="M625.733 375.506L633.84 373.259C635.793 369.841 637.355 368.083 638.625 368.083C640.481 368.083 640.871 364.372 642.629 364.372" stroke="white" stroke-width="0.704" stroke-linecap="round"/>
<path fill-rule="evenodd" clip-rule="evenodd" d="M556.639 525.938C549.51 528.966 544.333 527.794 541.013 522.422C536.032 514.414 536.325 504.745 531.051 502.304C527.535 500.643 524.41 501.913 521.48 506.015L529.879 554.651L558.983 545.959V535.021L556.639 525.938Z" fill="white"/>
<mask id="mask15" mask-type="alpha" maskUnits="userSpaceOnUse" x="521" y="501" width="38" height="54">
<path fill-rule="evenodd" clip-rule="evenodd" d="M556.639 525.938C549.51 528.966 544.333 527.794 541.013 522.422C536.032 514.414 536.325 504.745 531.051 502.304C527.535 500.643 524.41 501.913 521.48 506.015L529.879 554.651L558.983 545.959V535.021L556.639 525.938Z" fill="white"/>
</mask>
<g mask="url(#mask15)">
<path fill-rule="evenodd" clip-rule="evenodd" d="M568.652 537.365C556.639 543.322 547.165 543.322 540.231 537.365C529.879 528.282 537.301 504.94 522.554 504.94C512.788 504.94 511.518 528.282 518.843 574.965L561.229 565.297L568.652 537.365Z" fill="#BFDFF3"/>
</g>
<path fill-rule="evenodd" clip-rule="evenodd" d="M518.093 465.08C524.637 459.611 527.567 453.165 527.078 445.645C526.297 434.902 519.168 431.093 513.21 432.265C509.206 432.949 508.034 439.688 509.499 452.384L518.093 465.08Z" fill="#0F58BA"/>
<path fill-rule="evenodd" clip-rule="evenodd" d="M505.69 442.032L542.412 670.76L547.588 670.37L513.601 432.167C508.913 432.46 505.299 436.562 505.592 441.348C505.592 441.543 505.592 441.836 505.69 442.032Z" fill="#184888"/>
<path d="M529.91 554.638L558.33 546.142" stroke="#242441" stroke-width="0.704" stroke-linecap="round"/>
<path fill-rule="evenodd" clip-rule="evenodd" d="M800.458 377.197C814.913 359.227 828.879 345.847 842.161 337.154C855.443 328.462 867.163 321.528 876.929 316.45C871.363 323.775 869.312 330.709 870.874 337.154C873.218 346.823 880.543 354.832 876.929 364.5C874.488 370.946 852.611 378.173 811.495 386.182L800.458 377.197Z" fill="#097C5A"/>
<mask id="mask16" mask-type="alpha" maskUnits="userSpaceOnUse" x="800" y="316" width="78" height="71">
<path fill-rule="evenodd" clip-rule="evenodd" d="M800.458 377.197C814.913 359.227 828.879 345.847 842.161 337.154C855.443 328.462 867.163 321.528 876.929 316.45C871.363 323.775 869.312 330.709 870.874 337.154C873.218 346.823 880.543 354.832 876.929 364.5C874.488 370.946 852.611 378.173 811.495 386.182L800.458 377.197Z" fill="white"/>
</mask>
<g mask="url(#mask16)">
<path fill-rule="evenodd" clip-rule="evenodd" d="M811.104 374.852C844.7 346.823 868.628 332.857 882.887 332.857C897.146 332.857 899.685 352.683 890.603 392.237L809.834 385.791L811.104 374.852Z" fill="#147055"/>
</g>
<path fill-rule="evenodd" clip-rule="evenodd" d="M813.15 389.189C827.409 379.618 838.348 374.832 845.868 374.832C857.197 374.832 903.978 383.525 943.727 370.535C970.194 361.843 982.695 352.76 981.132 343.189C982.5 336.744 981.914 331.665 979.472 327.856C977.03 324.047 978.984 314.965 985.527 300.51C979.96 315.843 962.479 328.637 933.082 338.892C888.938 354.128 858.564 345.143 839.227 356.179C826.335 363.503 817.643 370.242 813.15 376.493V389.189Z" fill="#00B780"/>
<mask id="mask17" mask-type="alpha" maskUnits="userSpaceOnUse" x="813" y="300" width="173" height="90">
<path fill-rule="evenodd" clip-rule="evenodd" d="M813.15 389.189C827.409 379.618 838.348 374.832 845.868 374.832C857.197 374.832 903.978 383.525 943.727 370.535C970.194 361.843 982.695 352.76 981.132 343.189C982.5 336.744 981.914 331.665 979.472 327.856C977.03 324.047 978.984 314.965 985.527 300.51C979.96 315.843 962.479 328.637 933.082 338.892C888.938 354.128 858.564 345.143 839.227 356.179C826.335 363.503 817.643 370.242 813.15 376.493V389.189Z" fill="white"/>
</mask>
<g mask="url(#mask17)">
<path fill-rule="evenodd" clip-rule="evenodd" d="M830.535 384.208C831.414 377.957 840.594 374.051 857.881 372.488C883.957 370.144 938.356 387.821 990.801 344.752C992.461 343.384 1001.06 299.631 994.122 298.752C992.657 298.557 987.481 295.92 985.43 300.412C979.081 314.769 961.404 334.497 962.381 334.106C982.402 326.586 990.703 355.788 987.09 421.906L868.819 412.237L830.535 384.208Z" fill="#242441"/>
</g>
<path fill-rule="evenodd" clip-rule="evenodd" d="M798.827 400.811C803.906 400.811 807.617 399.835 809.863 397.784C813.184 394.756 818.555 391.142 818.555 381.474C818.555 375.028 814.551 370.438 806.543 367.801L798.827 400.811Z" fill="#097C5A"/>
<path fill-rule="evenodd" clip-rule="evenodd" d="M770.797 376.688C766.305 379.52 764.351 383.427 764.742 388.31C765.426 395.635 770.114 408.038 787.107 406.671C804.101 405.304 812.793 388.017 812.793 384.306C812.793 381.864 810.644 376.395 806.445 367.996L770.797 376.688Z" fill="#0A9269"/>
<path fill-rule="evenodd" clip-rule="evenodd" d="M771.091 371.512C766.598 374.442 764.645 378.251 765.036 383.232C765.719 390.556 770.407 402.96 787.401 401.592C804.394 400.225 813.086 382.939 813.086 379.227C813.086 376.786 810.938 371.317 806.738 362.917L771.091 371.512Z" fill="#00B780"/>
<path fill-rule="evenodd" clip-rule="evenodd" d="M770.635 364.573V373.363C770.244 378.929 770.049 383.227 770.049 386.156C770.049 390.551 788.312 394.556 791.437 394.556C792.414 394.556 793.879 390.356 796.516 389.477C798.371 388.891 801.008 386.547 804.427 382.543L801.301 374.046L770.635 364.573Z" fill="#FFA7C5"/>
<mask id="mask18" mask-type="alpha" maskUnits="userSpaceOnUse" x="770" y="364" width="35" height="31">
<path fill-rule="evenodd" clip-rule="evenodd" d="M770.635 364.573V373.363C770.244 378.929 770.049 383.227 770.049 386.156C770.049 390.551 788.312 394.556 791.437 394.556C792.414 394.556 793.879 390.356 796.516 389.477C798.371 388.891 801.008 386.547 804.427 382.543L801.301 374.046L770.635 364.573Z" fill="white"/>
</mask>
<g mask="url(#mask18)">
<path fill-rule="evenodd" clip-rule="evenodd" d="M780.108 369.456C783.917 375.023 787.53 377.757 791.144 377.757C794.757 377.757 797.492 377.562 799.445 377.074C800.813 379.32 801.203 381.566 800.813 383.715C800.422 385.864 798.273 388.305 794.465 390.747L796.125 397.388L806.184 381.176L800.422 370.53L780.108 369.456Z" fill="#F17EA5"/>
</g>
<mask id="mask19" mask-type="alpha" maskUnits="userSpaceOnUse" x="770" y="364" width="35" height="31">
<path fill-rule="evenodd" clip-rule="evenodd" d="M770.635 364.573V373.363C770.244 378.929 770.049 383.227 770.049 386.156C770.049 390.551 788.312 394.556 791.437 394.556C792.414 394.556 793.879 390.356 796.516 389.477C798.371 388.891 801.008 386.547 804.427 382.543L801.301 374.046L770.635 364.573Z" fill="white"/>
</mask>
<g mask="url(#mask19)">
<path d="M788.702 389.477C790.482 389.477 791.925 388.034 791.925 386.254C791.925 384.474 790.482 383.031 788.702 383.031C786.922 383.031 785.479 384.474 785.479 386.254C785.479 388.034 786.922 389.477 788.702 389.477Z" fill="#FC91B5"/>
</g>
<mask id="mask20" mask-type="alpha" maskUnits="userSpaceOnUse" x="770" y="364" width="35" height="31">
<path fill-rule="evenodd" clip-rule="evenodd" d="M770.635 364.573V373.363C770.244 378.929 770.049 383.227 770.049 386.156C770.049 390.551 788.312 394.556 791.437 394.556C792.414 394.556 793.879 390.356 796.516 389.477C798.371 388.891 801.008 386.547 804.427 382.543L801.301 374.046L770.635 364.573Z" fill="white"/>
</mask>
<g mask="url(#mask20)">
<path d="M771.025 382.348C772.643 382.348 773.955 381.036 773.955 379.418C773.955 377.8 772.643 376.488 771.025 376.488C769.407 376.488 768.095 377.8 768.095 379.418C768.095 381.036 769.407 382.348 771.025 382.348Z" fill="#FC91B5"/>
</g>
<path d="M788.182 381.083C788.775 381.083 789.256 380.602 789.256 380.008C789.256 379.415 788.775 378.934 788.182 378.934C787.588 378.934 787.107 379.415 787.107 380.008C787.107 380.602 787.588 381.083 788.182 381.083Z" fill="#0B2754"/>
<path d="M774.801 376.199C775.395 376.199 775.876 375.718 775.876 375.125C775.876 374.532 775.395 374.051 774.801 374.051C774.208 374.051 773.727 374.532 773.727 375.125C773.727 375.718 774.208 376.199 774.801 376.199Z" fill="#0B2754"/>
<path fill-rule="evenodd" clip-rule="evenodd" d="M789.133 348.167C783.664 345.628 779.074 346.507 775.46 350.707C769.893 357.055 770.186 346.312 765.01 350.023C759.834 353.734 761.201 370.142 770.479 367.895C779.757 365.649 780.441 375.709 787.961 376.881C795.481 378.052 798.411 374.83 798.411 376.881C798.411 377.076 793.137 392.116 791.477 392.311C775.656 394.851 770.186 383.815 769.698 385.475C769.6 385.866 769.698 388.405 770.382 390.163C772.726 395.827 785.52 397.878 790.501 396.706C791.868 396.413 793.04 395.144 794.016 392.897C798.509 383.912 801.048 380.103 801.537 381.471C802.416 383.522 800.755 386.452 798.997 387.917C798.216 388.6 800.56 388.6 803.099 386.354C806.127 383.619 809.545 377.76 810.815 368.677C812.377 357.445 805.15 350.609 789.133 348.167Z" fill="#0A357B"/>
<mask id="mask21" mask-type="alpha" maskUnits="userSpaceOnUse" x="762" y="346" width="50" height="52">
<path fill-rule="evenodd" clip-rule="evenodd" d="M789.133 348.167C783.664 345.628 779.074 346.507 775.46 350.707C769.893 357.055 770.186 346.312 765.01 350.023C759.834 353.734 761.201 370.142 770.479 367.895C779.757 365.649 780.441 375.709 787.961 376.881C795.481 378.052 798.411 374.83 798.411 376.881C798.411 377.076 793.137 392.116 791.477 392.311C775.656 394.851 770.186 383.815 769.698 385.475C769.6 385.866 769.698 388.405 770.382 390.163C772.726 395.827 785.52 397.878 790.501 396.706C791.868 396.413 793.04 395.144 794.016 392.897C798.509 383.912 801.048 380.103 801.537 381.471C802.416 383.522 800.755 386.452 798.997 387.917C798.216 388.6 800.56 388.6 803.099 386.354C806.127 383.619 809.545 377.76 810.815 368.677C812.377 357.445 805.15 350.609 789.133 348.167Z" fill="white"/>
</mask>
<g mask="url(#mask21)">
<path opacity="0.6602" fill-rule="evenodd" clip-rule="evenodd" d="M767.061 348.753C768.819 350.023 769.991 351 770.382 351.781C772.14 354.809 773.702 356.762 778.097 356.762C781.808 356.762 787.766 346.409 805.443 355.785C806.127 356.078 809.447 366.821 808.764 373.462C807.982 380.885 800.657 390.554 801.439 390.846C802.904 391.432 774.874 392.116 777.023 397.195C780.148 404.519 813.354 416.239 814.428 409.5C815.014 405.789 814.037 385.963 811.4 350.121L779.757 343.479L767.061 348.753Z" fill="#081E41"/>
</g>
<path d="M770.504 367.117C773.044 369.266 775.29 369.363 777.048 367.606" stroke="#061631" stroke-width="1.6632" stroke-linecap="round"/>
<path d="M787.205 370.438C789.06 373.172 791.111 374.051 793.357 372.781" stroke="#061631" stroke-width="1.6632" stroke-linecap="round"/>
<path d="M781.345 378.349C779.489 380.986 778.61 382.353 778.61 382.353C778.61 382.353 779.392 382.646 780.857 383.134" stroke="#E74E82" stroke-width="0.528" stroke-linecap="round"/>
<path fill-rule="evenodd" clip-rule="evenodd" d="M776.801 384.833C777.192 385.711 778.266 386.297 779.927 386.493C782.466 386.786 783.345 387.762 783.345 388.055C783.638 389.325 783.345 390.204 781.392 390.204C779.438 390.204 777.583 389.032 776.801 388.153C776.313 387.469 776.313 386.395 776.801 384.833Z" fill="#0A357B"/>
<mask id="mask22" mask-type="alpha" maskUnits="userSpaceOnUse" x="776" y="384" width="8" height="7">
<path fill-rule="evenodd" clip-rule="evenodd" d="M776.801 384.833C777.192 385.711 778.266 386.297 779.927 386.493C782.466 386.786 783.345 387.762 783.345 388.055C783.638 389.325 783.345 390.204 781.392 390.204C779.438 390.204 777.583 389.032 776.801 388.153C776.313 387.469 776.313 386.395 776.801 384.833Z" fill="white"/>
</mask>
<g mask="url(#mask22)">
<path fill-rule="evenodd" clip-rule="evenodd" d="M775.451 388.553C776.525 387.186 777.893 386.6 779.455 386.795C781.018 386.99 782.678 386.795 784.436 385.916L783.46 392.264L775.451 388.553Z" fill="#E74E82"/>
<mask id="mask23" mask-type="alpha" maskUnits="userSpaceOnUse" x="775" y="385" width="10" height="8">
<path fill-rule="evenodd" clip-rule="evenodd" d="M775.451 388.553C776.525 387.186 777.893 386.6 779.455 386.795C781.018 386.99 782.678 386.795 784.436 385.916L783.46 392.264L775.451 388.553Z" fill="white"/>
</mask>
<g mask="url(#mask23)">
<path fill-rule="evenodd" clip-rule="evenodd" d="M785.023 387.283C783.851 387.772 782.191 387.967 780.042 387.576C777.405 387.186 776.233 388.455 775.745 388.162C775.452 387.967 775.94 387.283 777.015 385.916L785.023 387.283Z" fill="#D3346A"/>
</g>
</g>
<mask id="mask24" mask-type="alpha" maskUnits="userSpaceOnUse" x="776" y="384" width="8" height="7">
<path fill-rule="evenodd" clip-rule="evenodd" d="M776.801 384.833C777.192 385.711 778.266 386.297 779.927 386.493C782.466 386.786 783.345 387.762 783.345 388.055C783.638 389.325 783.345 390.204 781.392 390.204C779.438 390.204 777.583 389.032 776.801 388.153C776.313 387.469 776.313 386.395 776.801 384.833Z" fill="white"/>
</mask>
<g mask="url(#mask24)">
<path fill-rule="evenodd" clip-rule="evenodd" d="M776.899 383.758C776.801 385.126 777.192 386.102 778.071 386.493C778.95 386.884 781.489 387.372 785.689 387.763L776.899 383.758Z" fill="white"/>
</g>
<path fill-rule="evenodd" clip-rule="evenodd" d="M792.425 333.471C798.901 333 804.129 333.271 808.051 334.47C813.964 336.176 829.657 338.625 829.969 339.945C830.28 341.266 827.376 343.748 825.897 347.585C824.417 351.422 818.541 362.29 813.08 363.786C809.52 364.74 802.594 354.657 792.425 333.471Z" fill="#F56A15"/>
<mask id="mask25" mask-type="alpha" maskUnits="userSpaceOnUse" x="789" y="328" width="38" height="31">
<path fill-rule="evenodd" clip-rule="evenodd" d="M789.692 343.807C794.77 339.706 799.361 337.069 803.17 335.799C809.029 333.943 823.484 327.205 824.363 328.084C825.242 328.963 824.363 332.674 825.242 336.678C826.121 340.682 827.39 352.988 823.679 357.285C821.335 360.215 809.908 355.722 789.692 343.807Z" fill="white"/>
</mask>
<g mask="url(#mask25)">
<path d="M814.596 366.856C812.838 359.531 813.522 355.137 816.647 353.867C821.335 351.914 822.995 351.23 822.995 345.858C822.995 340.487 818.991 335.897 822.995 332.869" stroke="#F44F1F" stroke-width="1.056"/>
</g>
<mask id="mask26" mask-type="alpha" maskUnits="userSpaceOnUse" x="789" y="328" width="38" height="31">
<path fill-rule="evenodd" clip-rule="evenodd" d="M789.692 343.807C794.77 339.706 799.361 337.069 803.17 335.799C809.029 333.943 823.484 327.205 824.363 328.084C825.242 328.963 824.363 332.674 825.242 336.678C826.121 340.682 827.39 352.988 823.679 357.285C821.335 360.215 809.908 355.722 789.692 343.807Z" fill="white"/>
</mask>
<g mask="url(#mask26)">
<path d="M806.295 357.285C804.537 349.961 805.221 345.566 808.346 344.296C813.034 342.343 814.694 341.659 814.694 336.288C814.694 330.916 810.69 326.326 814.694 323.298" stroke="#F44F1F" stroke-width="1.056"/>
</g>
<mask id="mask27" mask-type="alpha" maskUnits="userSpaceOnUse" x="789" y="328" width="38" height="31">
<path fill-rule="evenodd" clip-rule="evenodd" d="M789.692 343.807C794.77 339.706 799.361 337.069 803.17 335.799C809.029 333.943 823.484 327.205 824.363 328.084C825.242 328.963 824.363 332.674 825.242 336.678C826.121 340.682 827.39 352.988 823.679 357.285C821.335 360.215 809.908 355.722 789.692 343.807Z" fill="white"/>
</mask>
<g mask="url(#mask27)">
<path d="M793.794 357.774C791.938 350.449 792.622 346.152 795.747 344.784C800.435 342.831 802.095 342.147 802.095 336.776C802.095 331.404 798.091 326.814 802.095 323.787" stroke="#F44F1F" stroke-width="1.056"/>
</g>
<mask id="mask28" mask-type="alpha" maskUnits="userSpaceOnUse" x="789" y="328" width="38" height="31">
<path fill-rule="evenodd" clip-rule="evenodd" d="M789.692 343.807C794.77 339.706 799.361 337.069 803.17 335.799C809.029 333.943 823.484 327.205 824.363 328.084C825.242 328.963 824.363 332.674 825.242 336.678C826.121 340.682 827.39 352.988 823.679 357.285C821.335 360.215 809.908 355.722 789.692 343.807Z" fill="white"/>
</mask>
<g mask="url(#mask28)">
<path opacity="0.4265" fill-rule="evenodd" clip-rule="evenodd" d="M806.685 360.313C815.377 360.508 820.553 358.457 822.409 353.965C825.046 347.324 828.464 336.288 833.445 332.967C838.426 329.646 849.169 378.674 833.445 378.967C822.995 379.162 814.596 374.474 808.443 365.001L806.685 360.313Z" fill="#D74216"/>
</g>
<path d="M835.175 334.934C835.601 333.542 834.817 332.068 833.425 331.642C832.032 331.216 830.558 332 830.132 333.392C829.706 334.785 830.49 336.259 831.883 336.685C833.275 337.111 834.749 336.327 835.175 334.934Z" fill="#F56A15"/>
<path fill-rule="evenodd" clip-rule="evenodd" d="M795.735 334.222C798.745 334.734 799.658 339.098 802.24 346.015C804.823 352.933 812.058 363.008 814.475 365.79C816.893 368.571 810.051 372.914 808.276 372.371C806.473 371.922 801.298 368.808 794.17 358.05C787.042 347.292 783.066 340.255 784.226 338.465C785.386 336.675 792.726 333.711 795.735 334.222Z" fill="#F39155"/>
<mask id="mask29" mask-type="alpha" maskUnits="userSpaceOnUse" x="779" y="339" width="43" height="26">
<path fill-rule="evenodd" clip-rule="evenodd" d="M786.47 339.847C789.302 338.578 792.427 341.703 798.385 346C804.342 350.297 815.964 354.692 819.578 355.571C823.191 356.45 819.871 363.873 818.113 364.556C816.355 365.142 810.3 365.533 798.385 360.552C786.47 355.571 779.243 351.86 779.243 349.711C779.243 347.563 783.638 341.117 786.47 339.847Z" fill="white"/>
</mask>
<g mask="url(#mask29)">
<path fill-rule="evenodd" clip-rule="evenodd" d="M778.169 341.41C780.415 346.098 782.271 349.418 783.833 351.371C792.916 363.286 802.292 369.146 809.226 368.072C822.215 366.119 817.918 358.11 821.629 354.399C824.071 351.957 825.34 354.497 825.34 362.114L819.676 388.777L775.239 358.501L778.169 341.41Z" fill="#242441"/>
</g>
<path fill-rule="evenodd" clip-rule="evenodd" d="M768.747 381.474C768.063 387.04 768.258 390.166 769.43 390.849C771.091 391.826 789.842 402.178 801.171 389.189C805.175 384.697 809.375 380.985 808.496 382.548C808.008 383.525 804.296 388.115 797.46 396.514L787.108 400.225L773.044 396.514L768.356 392.217L768.747 381.474Z" fill="#00B780"/>
<path d="M906.351 346.824C935.064 341.062 958.112 328.463 975.497 309.125" stroke="#00B780" stroke-width="0.704" stroke-linecap="round"/>
<path d="M765.812 366.552C762.198 364.208 760.831 359.422 761.515 352.098" stroke="#0A357B" stroke-width="0.704" stroke-linecap="round"/>
<path d="M1038.85 572.501C1040.69 571.901 1041.22 568.42 1040.02 564.726C1038.82 561.033 1036.35 558.525 1034.5 559.125C1032.65 559.725 1032.13 563.206 1033.33 566.899C1034.53 570.593 1037 573.101 1038.85 572.501Z" stroke="#0F58BA" stroke-width="1.76"/>
<path fill-rule="evenodd" clip-rule="evenodd" d="M620.781 734.843L602.225 747.637C595.779 752.032 587.38 752.52 580.544 748.711L579.958 748.32C573.609 744.805 571.363 736.894 574.781 730.546C575.074 729.96 575.465 729.471 575.856 728.983C580.446 722.928 586.403 720.291 593.728 720.779C605.252 721.756 614.335 726.444 620.781 734.843Z" fill="#0F58BA"/>
<path fill-rule="evenodd" clip-rule="evenodd" d="M826.559 632.197L1035.07 564.321C1036.15 564.028 1037.22 564.516 1037.61 565.591C1038 566.567 1037.42 567.642 1036.44 568.032L828.22 639.815C826.364 640.401 824.411 639.522 823.825 637.667C823.825 637.569 823.727 637.374 823.727 637.276C823.239 635.127 824.411 632.881 826.559 632.197Z" fill="#0F58BA"/>
<path d="M381.212 695.875C387.738 695.875 393.029 690.584 393.029 684.058C393.029 677.531 387.738 672.24 381.212 672.24C374.685 672.24 369.394 677.531 369.394 684.058C369.394 690.584 374.685 695.875 381.212 695.875Z" fill="white"/>
<path d="M403.674 561.392C413.923 561.392 422.23 553.084 422.23 542.835C422.23 532.587 413.923 524.279 403.674 524.279C393.426 524.279 385.118 532.587 385.118 542.835C385.118 553.084 393.426 561.392 403.674 561.392Z" fill="white"/>
<path d="M916.117 302.094C920.54 302.094 924.126 298.509 924.126 294.086C924.126 289.663 920.54 286.077 916.117 286.077C911.694 286.077 908.109 289.663 908.109 294.086C908.109 298.509 911.694 302.094 916.117 302.094Z" fill="white"/>
<path d="M1013.2 255.899C1015.41 255.899 1017.2 254.106 1017.2 251.894C1017.2 249.683 1015.41 247.89 1013.2 247.89C1010.98 247.89 1009.19 249.683 1009.19 251.894C1009.19 254.106 1010.98 255.899 1013.2 255.899Z" fill="white"/>
<path d="M1092.11 414.896C1096.53 414.896 1100.12 411.31 1100.12 406.887C1100.12 402.464 1096.53 398.879 1092.11 398.879C1087.68 398.879 1084.1 402.464 1084.1 406.887C1084.1 411.31 1087.68 414.896 1092.11 414.896Z" fill="#ACE1FE"/>
<path d="M1023.84 493.32C1026.05 493.32 1027.84 491.527 1027.84 489.316C1027.84 487.104 1026.05 485.312 1023.84 485.312C1021.63 485.312 1019.84 487.104 1019.84 489.316C1019.84 491.527 1021.63 493.32 1023.84 493.32Z" fill="#ACE1FE"/>
<path d="M1141.04 716.482C1145.46 716.482 1149.05 712.896 1149.05 708.473C1149.05 704.05 1145.46 700.465 1141.04 700.465C1136.61 700.465 1133.03 704.05 1133.03 708.473C1133.03 712.896 1136.61 716.482 1141.04 716.482Z" fill="#ACE1FE"/>
<path d="M795.404 338.815L802.827 348.484" stroke="#242441" stroke-width="0.704" stroke-linecap="round"/>
<path d="M818.844 360.79C821.481 358.348 823.141 355.223 823.825 351.414" stroke="#242441" stroke-width="0.704" stroke-linecap="round"/>
<path d="M775.383 400.148C784.27 402.101 791.497 401.222 797.064 397.511" stroke="#242441" stroke-width="0.704" stroke-linecap="round"/>
<path d="M811.128 369.775C815.327 371.728 817.378 375.635 817.183 381.495" stroke="#242441" stroke-width="0.704" stroke-linecap="round"/>
<path d="M824.899 365.966C834.665 357.274 845.408 352.098 857.128 350.535C868.848 348.973 884.474 348.289 904.202 348.387" stroke="white" stroke-width="0.704" stroke-linecap="round"/>
<path d="M720.301 445.366C728.212 441.46 733.583 437.26 736.318 432.67C739.052 428.08 741.884 418.9 744.619 404.934" stroke="#242441" stroke-width="0.704" stroke-linecap="round"/>
<path d="M796.088 499.571L825.485 440.875" stroke="#242441" stroke-width="0.704" stroke-linecap="round"/>
<path d="M820.797 518.614L861.913 524.279" stroke="#242441" stroke-width="0.704" stroke-linecap="round"/>
<path d="M749.014 348.484C750.088 341.843 753.897 338.131 760.343 337.448" stroke="#0A357B" stroke-width="0.704" stroke-linecap="round"/>
<path d="M746.377 340.085C747.061 338.132 747.94 336.569 749.014 335.397C750.088 334.225 752.041 333.737 754.678 333.737" stroke="#0A357B" stroke-width="0.704" stroke-linecap="round"/>
<path d="M847.061 606.009C853.72 605.05 857.497 601.307 858.293 594.874" stroke="#0A357B" stroke-width="0.704" stroke-linecap="round"/>
<path d="M855.315 608.79C857.28 608.14 858.858 607.289 860.048 606.235C861.239 605.181 861.761 603.237 861.807 600.6" stroke="#0A357B" stroke-width="0.704" stroke-linecap="round"/>
<path d="M633.087 726.15L781.731 620.771" stroke="white" stroke-width="0.704" stroke-linecap="round"/>
<path d="M508.468 439.214L531.809 612.079" stroke="white" stroke-width="0.704" stroke-linecap="round"/>
</svg>
