<svg width="600" height="557" viewBox="0 0 600 557" fill="none" xmlns="http://www.w3.org/2000/svg">
<path d="M492.927 186.308C495.319 180.146 498.055 162.603 478.028 166.052C461.566 168.88 461.129 153.314 463.129 145.358" stroke="white" stroke-width="4.7644" stroke-linecap="round"/>
<path d="M187.566 371.787C188.67 369.557 190.256 363.05 182.623 363.717C176.346 364.245 176.691 358.405 177.679 355.485" stroke="white" stroke-width="4.7644" stroke-linecap="round"/>
<path d="M291.468 564.095C293.285 560.394 295.883 549.679 283.306 550.76C272.959 551.657 273.488 541.977 275.144 537.148" stroke="white" stroke-width="5" stroke-linecap="round"/>
<path d="M465.429 306.42C467.199 302.833 470.165 293.084 459.727 297.062C451.15 300.327 452.346 291.981 454.07 287.474" stroke="white" stroke-width="4.7644" stroke-linecap="round"/>
<path d="M407.419 308.512C411.006 301.292 417.007 281.611 395.923 289.612C378.61 296.188 381.001 279.334 384.496 270.229" stroke="#FFC700" stroke-width="15" stroke-linecap="round"/>
<path d="M354.605 188.009C356.721 183.755 360.262 172.167 347.846 176.881C337.637 180.743 339.063 170.834 341.109 165.477" stroke="#FFC700" stroke-width="15" stroke-linecap="round"/>
<path d="M192.326 326.17C193.728 323.342 196.074 315.663 187.842 318.79C181.083 321.365 182.002 314.766 183.382 311.225" stroke="#FFB905" stroke-width="15" stroke-linecap="round"/>
<path d="M171.448 211.323C176.553 201.022 185.106 172.972 155.078 184.376C130.407 193.757 133.81 169.73 138.799 156.762" stroke="#FFC700" stroke-width="15" stroke-linecap="round"/>
<path d="M82.698 280.485C84.4685 276.898 87.4575 267.149 76.9959 271.127C68.4197 274.392 69.6153 266.046 71.3397 261.539" stroke="white" stroke-width="4.7644" stroke-linecap="round"/>
<path d="M55.981 439.706C57.8894 434.464 59.8438 419.519 42.8065 422.485C28.8042 424.922 28.0684 411.655 29.6089 404.873" stroke="white" stroke-width="4.7644" stroke-linecap="round"/>
<path d="M524.91 442.488C526.91 437.476 529.255 423.128 512.793 425.704C499.273 427.819 498.997 415.058 500.676 408.551" stroke="white" stroke-width="4.7644" stroke-linecap="round"/>
<path d="M124.797 536.756C96.1621 536.756 72.9491 513.543 72.9491 484.909C72.9491 456.274 96.1621 433.061 124.797 433.061C153.432 433.061 176.645 456.274 176.645 484.909C176.645 513.543 153.432 536.756 124.797 536.756Z" stroke="#7432FF" stroke-width="13"/>
<path d="M244.104 326.537C194.962 326.537 155.124 286.699 155.124 237.557C155.124 188.415 194.962 148.577 244.104 148.577C293.247 148.577 333.084 188.415 333.084 237.557C333.084 286.699 293.247 326.537 244.104 326.537Z" stroke="#7432FF" stroke-width="40"/>
<path d="M78.3293 239.097C68.0437 239.097 59.7055 230.759 59.7055 220.473C59.7055 210.188 68.0437 201.85 78.3293 201.85C88.615 201.85 96.9531 210.188 96.9531 220.473C96.9531 230.759 88.615 239.097 78.3293 239.097Z" stroke="#7432FF" stroke-width="43"/>
<path d="M534.773 370.338C519.294 370.338 506.746 357.79 506.746 342.31C506.746 326.831 519.294 314.283 534.773 314.283C550.253 314.283 562.801 326.831 562.801 342.31C562.801 357.79 550.253 370.338 534.773 370.338Z" stroke="#7432FF" stroke-width="49"/>
<path d="M171.403 291.979C170.323 291.979 169.448 291.105 169.448 290.025C169.448 288.946 170.323 288.071 171.403 288.071C172.482 288.071 173.357 288.946 173.357 290.025C173.357 291.105 172.482 291.979 171.403 291.979Z" stroke="#2039D2" stroke-width="9.8833"/>
<path d="M317.404 363.141C316.515 363.141 315.794 362.42 315.794 361.531C315.794 360.642 316.515 359.922 317.404 359.922C318.293 359.922 319.013 360.642 319.013 361.531C319.013 362.42 318.293 363.141 317.404 363.141Z" stroke="#2039D2" stroke-width="6.7895"/>
<path d="M351.662 211.001C350.05 211.001 348.742 209.694 348.742 208.081C348.742 206.468 350.05 205.161 351.662 205.161C353.275 205.161 354.582 206.468 354.582 208.081C354.582 209.694 353.275 211.001 351.662 211.001Z" stroke="#2039D2" stroke-width="6"/>
<path d="M386.841 105.628L400.291 120.113L413.742 134.598" stroke="#23B782" stroke-width="5" stroke-linecap="round"/>
<path d="M352.881 83.8311L403.326 138.001" stroke="#23B782" stroke-width="5" stroke-linecap="round"/>
<path d="M366.033 113.146L407.649 158.74" stroke="#23B782" stroke-width="5" stroke-linecap="round"/>
<path d="M427.169 349.53L441.148 364.59L455.128 379.627" stroke="#FFC700" stroke-width="5" stroke-linecap="round"/>
<path d="M413.581 351.485L480.304 422.876" stroke="#FFC700" stroke-width="5" stroke-linecap="round"/>
<path d="M3.85748 273.679L104.058 384.088" stroke="black" stroke-width="5" stroke-linecap="round"/>
<path d="M27.6316 323.526L110.91 416.829" stroke="black" stroke-width="5" stroke-linecap="round"/>
<path d="M76.7885 486.013C73.8679 486.013 71.5003 483.645 71.5003 480.725C71.5003 477.804 73.8679 475.437 76.7885 475.437C79.7091 475.437 82.0767 477.804 82.0767 480.725C82.0767 483.645 79.7091 486.013 76.7885 486.013Z" stroke="black" stroke-width="7"/>
<path d="M394.474 181.112C392.759 181.112 391.37 179.722 391.37 178.008C391.37 176.293 392.759 174.904 394.474 174.904C396.188 174.904 397.578 176.293 397.578 178.008C397.578 179.722 396.188 181.112 394.474 181.112Z" stroke="black" stroke-width="14.2933"/>
<path d="M534.773 199.391C533.059 199.391 531.669 198.001 531.669 196.287C531.669 194.572 533.059 193.183 534.773 193.183C536.488 193.183 537.877 194.572 537.877 196.287C537.877 198.001 536.488 199.391 534.773 199.391Z" stroke="black" stroke-width="14.2933"/>
<path d="M221.801 133.747C215.528 133.747 210.443 128.662 210.443 122.389C210.443 116.116 215.528 111.031 221.801 111.031C228.074 111.031 233.159 116.116 233.159 122.389C233.159 128.662 228.074 133.747 221.801 133.747Z" stroke="black" stroke-width="11"/>
<path d="M136.776 306.673C134.414 306.673 132.499 304.758 132.499 302.396C132.499 300.034 134.414 298.12 136.776 298.12C139.138 298.12 141.052 300.034 141.052 302.396C141.052 304.758 139.138 306.673 136.776 306.673Z" stroke="black" stroke-width="11"/>
<path d="M64.626 141.197C62.2641 141.197 60.3494 139.282 60.3494 136.92C60.3494 134.558 62.2641 132.644 64.626 132.644C66.9879 132.644 68.9026 134.558 68.9026 136.92C68.9026 139.282 66.9879 141.197 64.626 141.197Z" stroke="white" stroke-width="11"/>
<path d="M554.179 492.52C551.817 492.52 549.902 490.605 549.902 488.243C549.902 485.882 551.817 483.967 554.179 483.967C556.541 483.967 558.455 485.882 558.455 488.243C558.455 490.605 556.541 492.52 554.179 492.52Z" stroke="black" stroke-width="11"/>
<path d="M536.888 167.684C526.539 167.684 518.15 159.294 518.15 148.945C518.15 138.596 526.539 130.207 536.888 130.207C547.238 130.207 555.627 138.596 555.627 148.945C555.627 159.294 547.238 167.684 536.888 167.684Z" stroke="white" stroke-width="7"/>
<path d="M255.141 445.017C251.687 445.017 248.887 442.217 248.887 438.763C248.887 435.309 251.687 432.509 255.141 432.509C258.595 432.509 261.395 435.309 261.395 438.763C261.395 442.217 258.595 445.017 255.141 445.017Z" stroke="black" stroke-width="7"/>
<path d="M307.862 476.286H442.942V593.501H307.862V476.286Z" fill="#7432FF"/>
<path d="M449.403 545.769H575.493V585.661H449.403V545.769Z" fill="#7432FF"/>
<path d="M126.015 525.812H296.55V579.775H126.015V525.812Z" fill="#7432FF"/>
<path d="M299.056 473.205H445.747V542.895H568.434V588.328H129.993V519.604H299.056V473.205V473.205Z" stroke="black" stroke-width="5" stroke-linecap="round"/>
<path d="M442.758 568.692L345.822 476.746H442.758V568.692Z" fill="#6322EE"/>
<path d="M388.359 341.804C385.232 297.521 360.308 288.991 346.076 287.542L327.13 338.448C330.947 338.264 339.109 339.229 341.109 344.609C343.616 351.323 327.82 386.295 320.692 413.403C319.382 418.415 317.404 426.255 317.404 426.255L374.655 411.425C371.597 401.929 385.852 380.11 388.359 341.804Z" fill="#FF6B6B"/>
<path d="M227.343 417.725C235.85 412.23 245.898 396.388 249.853 389.169L208.145 364.981C205.777 371.304 195.476 389.744 173.104 412.943C150.756 436.119 142.111 469.159 140.57 482.794C158.78 476.678 195.2 464.193 195.2 463.204C197.108 449.823 216.698 424.6 227.343 417.725Z" fill="#FF6B6B"/>
<path d="M206.857 368.269C206.857 368.269 268.591 384.087 238.356 385.467C218.192 390.295 218.192 378.638 196.096 385.513C196.096 385.513 203.914 373.557 206.857 368.269Z" fill="#E34545"/>
<path d="M328.532 338.448L341.822 300.027C340.488 306.235 338.166 318.651 341.523 327.135C344.19 333.872 346.65 339.85 341.04 350.243C341.04 350.243 342.075 346.748 340.281 343.046C337.752 339.574 334.119 339.091 328.532 338.448Z" fill="#E34545"/>
<path d="M208.949 418.782C213.709 422.806 219.779 421.288 222.216 420.047C218.859 423.794 211.501 431.244 208.949 431.152C205.753 431.037 208.259 418.782 208.949 418.782Z" fill="#E34545"/>
<path d="M325.544 347.024L346.237 287.381C346.237 287.381 315.519 286.554 304.368 282.599C298.987 281.909 302.781 276.989 301.839 275.793C281.927 268.459 235.529 280.093 235.529 280.093L195.246 361.785L250.313 392.25C256.176 374.292 270.385 334.033 275.765 332.377C281.145 330.722 311.196 341.459 325.544 347.024Z" fill="#00C472"/>
<path d="M232.309 321.25C239.23 318.559 253.784 309.064 256.635 292.578L232.309 321.25Z" fill="#07A358"/>
<path d="M255.877 297.107C255.877 297.107 250.979 310.719 236.839 319.709" stroke="black" stroke-width="5" stroke-linecap="round"/>
<path d="M282.341 326.583C282.341 326.583 270.04 334.217 264.177 349.898" stroke="black" stroke-width="5" stroke-linecap="round"/>
<path d="M193.613 361.095C193.613 361.095 212.72 370.154 232.769 382.478" stroke="black" stroke-width="5" stroke-linecap="round"/>
<path d="M331.337 325.112C331.337 325.112 338.626 305.27 349.064 284.186" stroke="black" stroke-width="5" stroke-linecap="round"/>
<path d="M272.454 289.014L264.522 298.579" stroke="black" stroke-width="5" stroke-linecap="round"/>
<path d="M291.607 288.048L296.32 299.545" stroke="black" stroke-width="5" stroke-linecap="round"/>
<path d="M295.63 324.974L307.885 322.928" stroke="black" stroke-width="5" stroke-linecap="round"/>
<path d="M318.461 294.992L328.601 302.165" stroke="black" stroke-width="5" stroke-linecap="round"/>
<path d="M254.497 311.546L261.395 321.87" stroke="black" stroke-width="5" stroke-linecap="round"/>
<path d="M229.504 325.779L220.583 334.424" stroke="black" stroke-width="5" stroke-linecap="round"/>
<path d="M251.807 341.298L248.243 353.208" stroke="black" stroke-width="5" stroke-linecap="round"/>
<path d="M214.858 347.253L211.294 359.163" stroke="black" stroke-width="5" stroke-linecap="round"/>
<path d="M250.128 372.706L237.713 373.027" stroke="black" stroke-width="5" stroke-linecap="round"/>
<path d="M235.16 347.276L222.745 347.598" stroke="black" stroke-width="5" stroke-linecap="round"/>
<path d="M313.702 463.687C312.208 451.846 315.266 431.75 317.266 425.427L374.333 409.77C374.517 410.528 375.161 412.667 376.218 415.219C377.529 418.415 384.381 426.945 402.568 435.935C417.122 443.131 426.112 458.031 428.871 464.284C387.577 463.687 313.702 464.744 313.702 463.687Z" fill="black"/>
<path d="M136.822 514.086C135.328 502.245 139.604 482.977 141.604 476.677L195.476 462.238C195.659 462.997 195.82 465.388 197.361 467.687C200.764 472.769 208.742 478.195 226.929 487.185C241.483 494.381 250.657 507.97 253.416 514.224C214.789 513.166 136.822 514.086 136.822 514.086Z" fill="black"/>
<path d="M347.777 337.206C344.742 341.022 337.867 350.771 334.625 359.393" stroke="black" stroke-width="5" stroke-linecap="round"/>
<path d="M241.368 407.378C233.206 416.943 224.4 422.002 211.065 426.255" stroke="black" stroke-width="5" stroke-linecap="round"/>
<path d="M378.587 297.107C385.301 311.478 386.841 324.077 385.484 341.23" stroke="black" stroke-width="5" stroke-linecap="round"/>
<path d="M173.656 408.045C158.044 426.761 150.02 444.097 143.559 468.492" stroke="black" stroke-width="5" stroke-linecap="round"/>
<path d="M196.28 469.619C200.189 461.319 209.11 445.868 213.548 450.42C218.008 454.95 203.891 465.112 196.28 469.619Z" stroke="black" stroke-width="5"/>
<path d="M195.246 469.619C202.258 463.709 216.813 453.386 218.951 459.364C221.089 465.342 204.029 468.699 195.246 469.619Z" stroke="black" stroke-width="5"/>
<path d="M377 422.484C380.909 414.184 389.83 398.733 394.267 403.286C398.705 407.838 384.611 417.978 377 422.484Z" stroke="black" stroke-width="5"/>
<path d="M375.965 422.484C382.978 416.575 397.532 406.252 399.67 412.23C401.809 418.231 384.748 421.565 375.965 422.484Z" stroke="black" stroke-width="5"/>
<path d="M316.668 169.729C317.726 177.731 309.38 183.916 304.919 184.261C303.816 187.502 301.7 194.446 302.114 196.148C302.551 197.849 311.909 202.999 316.53 205.368C315.726 206.517 311.265 209.621 299.838 212.702C276.593 217.117 268.453 199.022 268.453 198.148C290.204 188.008 287.813 177.179 287.813 176.374C287.399 176.374 282.433 173.155 281.49 169.614C280.547 166.074 280.363 162.579 280.363 162.579C280.363 162.579 280.984 157.337 282.203 154.348C283.904 150.186 293.285 145.564 298.504 145.541C303.701 145.495 307.058 149.059 310.391 154.348C314.024 160.096 315.611 161.705 316.668 169.729Z" fill="#FF6B6B"/>
<path d="M288.411 176.467C289.974 176.581 290.917 175.915 291.193 175.57C291.216 176.007 291.124 176.949 290.411 177.064C289.698 177.202 288.779 176.719 288.411 176.467Z" fill="#E34545"/>
<path d="M286.089 169.201C287.974 168.856 289.653 170.396 290.273 171.224C290.273 171.224 288.25 170.259 286.848 170.167C285.514 170.075 284.64 171.017 284.64 171.017C284.686 170.534 285.031 169.454 286.089 169.201Z" fill="#E34545"/>
<path d="M307.586 171.063C307.586 171.063 310.943 169.914 310.943 168.189C310.943 167.086 307.126 161.246 307.126 161.246" stroke="black" stroke-width="5" stroke-linecap="round"/>
<path d="M292.25 179.363C297.469 183.387 304.321 184.008 304.896 184.261L302.666 191.687L292.25 179.363Z" fill="#E34545"/>
<path d="M300.477 164.62C300.076 163.913 300.091 163.147 300.51 162.908C300.93 162.67 301.595 163.05 301.996 163.757C302.398 164.464 302.382 165.23 301.963 165.468C301.543 165.706 300.878 165.326 300.477 164.62Z" fill="black"/>
<path d="M310.381 161.062C310.201 160.269 310.436 159.54 310.906 159.433C311.377 159.326 311.904 159.881 312.085 160.674C312.265 161.466 312.03 162.195 311.56 162.302C311.089 162.41 310.562 161.854 310.381 161.062Z" fill="black"/>
<path d="M303.815 184.169C301.24 183.548 295.354 181.777 292.434 179.616" stroke="black" stroke-width="5" stroke-linecap="round"/>
<path d="M307.656 150.669C313.312 147.496 317.266 132.459 304.804 130.206C300.275 129.401 298.551 133.31 298.275 135.379C297.378 134.344 294.044 133.011 292.021 135.379C290.411 137.609 290.02 140.046 290.02 140.989C284.571 143.978 276.593 150.807 276.593 160.234C276.593 169.661 287.238 176.466 288.227 176.742C288.25 176.213 284.065 174.696 283.537 171.109C283.031 167.591 287.698 166.878 289.193 167.522C289.239 167.545 289.239 167.568 289.262 167.545C289.239 167.545 289.216 167.522 289.193 167.522C288.595 166.97 284.801 160.464 284.801 160.257C284.387 160.234 301.999 153.842 307.656 150.669Z" fill="black"/>
<path d="M338.718 224.796C345.57 231.257 360.515 244.156 365.343 244.156C387.76 240.937 399.831 188.629 403.924 189.411C408.546 190.285 405.511 207.161 405.304 207.782C405.074 208.403 405.281 209.943 407.005 209.943C408.729 209.966 416.662 204.149 419.398 203.896C422.801 203.597 421.881 208.84 423.881 209.943C425.905 211.024 424.962 212.886 423.881 214.588L424.962 216.611C425.79 216.91 427.445 217.968 427.445 219.715C427.445 221.876 425.905 223.118 427.445 224.819C430.296 226.682 428.641 230.038 427.445 231.487L402.062 240.615C394.428 251.559 376.08 273.632 363.825 274.368C351.571 275.104 335.292 257.652 328.693 248.823L338.718 224.796Z" fill="#FF6B6B"/>
<path d="M328.693 249.674C328.486 249.444 328.257 249.191 328.027 248.961C328.027 248.961 328.257 249.214 328.693 249.674C341.845 264.067 357.986 284.392 375 269.424C369.873 270.39 364.01 273.701 349.272 265.148C337.247 258.158 330.671 251.766 328.693 249.674Z" fill="#E34545"/>
<path d="M194.717 274.736C175.127 241.581 205.776 223.831 227.274 217.416L235.505 239.351C228.263 241.719 213.364 248.571 211.662 257.101C209.547 267.769 231.711 280.576 234.516 281.496C237.299 282.438 253.577 283.243 254.451 286.278C255.141 288.715 246.266 290.118 241.736 290.509C243.644 291.681 247.668 294.256 248.496 295.038C249.553 296.027 248.864 298.763 246.932 299.499C245.392 300.096 244.541 301.315 244.334 301.867C244.656 302.695 245.139 304.695 244.334 306.028C243.345 307.707 240.862 307.017 240.311 309.868C239.759 312.719 235.896 312.788 234.976 313.409C234.034 314.03 235.482 317.318 231.964 316.605C221.089 312.512 202.511 287.198 194.717 274.736Z" fill="#FF6B6B"/>
<path d="M231.321 307.384L228.952 306.051" stroke="black" stroke-width="5" stroke-linecap="round"/>
<path d="M234.654 303.039L232.286 301.706" stroke="black" stroke-width="5" stroke-linecap="round"/>
<path d="M238.426 298.463L236.057 297.13" stroke="black" stroke-width="5" stroke-linecap="round"/>
<path d="M213.134 263.814C209.984 258.756 212.214 254.709 213.272 253.307C210.697 254.686 206.144 259.216 209.087 264.895C212.03 270.574 223.526 276.368 228.906 278.529C224.975 275.747 216.307 268.872 213.134 263.814Z" fill="#E34545"/>
<path d="M217.019 250.686C215.134 251.582 210.627 254.019 207.753 256.618" stroke="black" stroke-width="5" stroke-linecap="round"/>
<path d="M357.732 247.375C359.871 246.961 365.09 245.535 368.884 243.098" stroke="black" stroke-width="5" stroke-linecap="round"/>
<path d="M403.005 227.808C403.74 225.761 405.787 220.243 405.787 213.392" stroke="black" stroke-width="5" stroke-linecap="round"/>
<path d="M407.833 224.957C407.833 224.957 411.994 223.831 416.087 225.785" stroke="black" stroke-width="5" stroke-linecap="round"/>
<path d="M309.104 201.39C322.209 203.62 335.269 214.587 340.925 221.048L330.165 255.146L312.851 239.235L301.677 278.529C279.834 272.367 248.312 277.219 235.344 280.392L249.439 234.177L231.757 255.146L215.571 221.922L275.121 194.745C292.618 212.863 309.104 200.953 309.104 201.39Z" fill="#FFC700"/>
<path d="M248.91 235.741L235.39 280.484C235.39 280.484 246.496 277.564 263.832 276.046C258.061 273.586 251.232 270.275 246.611 262.665C244.013 258.411 247.99 242.546 248.91 235.741Z" fill="#FF7D05"/>
<path d="M274.454 228.727L271.718 222.588L269.166 228.727L263.533 226.175L267.281 231.992L265.234 237.12L270.522 235.418L272.914 241.235L274.454 235.418H282.479L276.5 232.015L280.248 226.198L274.454 228.727Z" fill="#7432FF"/>
<path d="M306.989 202.08C302.942 204.517 292.067 207.437 280.961 199.597" stroke="black" stroke-width="5" stroke-linecap="round"/>
<path d="M254.014 231.877C252.198 232.935 247.875 235.763 245.208 238.683" stroke="black" stroke-width="5" stroke-linecap="round"/>
<path d="M306.988 231.877C307.977 233.694 310.552 238.016 313.012 240.752" stroke="black" stroke-width="5" stroke-linecap="round"/>
<path d="M250.956 275.793C250.956 275.793 283.191 274.184 304.758 278.138" stroke="black" stroke-width="5" stroke-linecap="round"/>
</svg>
