<svg width="450" height="565" viewBox="0 0 450 565" fill="none" xmlns="http://www.w3.org/2000/svg">
<g clip-path="url(#clip0)">
<path fill-rule="evenodd" clip-rule="evenodd" d="M52.2871 502.972L198.428 310.77L273.462 321.377L159.683 432.652L52.2871 507.49V502.972Z" fill="#57B5E8"/>
<path fill-rule="evenodd" clip-rule="evenodd" d="M-22.6396 635.002C113.778 502.758 202.12 416.577 242.339 376.555C276.615 342.524 331.483 283.445 385.5 187C387.74 183 500.808 -123.755 504 -129.5L544.146 168.786L544.294 275.887L95.805 571.213L-22.6396 635.002Z" fill="#77CEFD"/>
<path d="M247.731 355.113C248.626 355.113 249.351 354.453 249.351 353.64C249.351 352.826 248.626 352.167 247.731 352.167C246.836 352.167 246.11 352.826 246.11 353.64C246.11 354.453 246.836 355.113 247.731 355.113Z" fill="#F279A2"/>
<path fill-rule="evenodd" clip-rule="evenodd" d="M-28.8369 576.583L128.549 458.286C140.236 420.13 155.509 396.608 174.365 387.72C202.651 374.412 210.017 403.238 210.017 401.912C210.017 400.586 215.959 270.994 258.436 261.271C300.913 251.548 283.873 305.565 295.167 269.963C306.413 234.361 334.747 179.558 377.862 184.027C406.59 186.973 419.947 225.767 417.982 300.311L68.7866 546.677L-28.8369 576.583Z" fill="#D5F1FB"/>
<path fill-rule="evenodd" clip-rule="evenodd" d="M9.85923 555.172L494.294 218.253V661.684H-149L9.85923 555.172Z" fill="white"/>
<path opacity="0.344" fill-rule="evenodd" clip-rule="evenodd" d="M135.817 507.49L257.503 430.295L311.176 434.665L270.565 460.152L307.984 463.687L280.288 473.754L241.396 479.156L186.348 504.789L135.817 507.49Z" fill="#ACE1FE"/>
<path fill-rule="evenodd" clip-rule="evenodd" d="M186.79 515.2L378.943 379.421C385.229 366.899 386.112 360.613 381.644 360.613C377.175 360.613 370.349 369.207 361.166 386.443C358.613 383.546 355.421 382.957 351.591 384.774C347.81 386.541 343.635 392.385 339.167 402.206C338.283 398.965 336.662 398.573 334.305 401.028C331.948 403.483 329.935 407.019 328.265 411.586L183.254 512.892L186.79 515.2Z" fill="#ACE1FE"/>
<path fill-rule="evenodd" clip-rule="evenodd" d="M-22.6006 623.48L169.553 487.7C175.838 475.178 176.722 468.893 172.254 468.893C167.785 468.893 160.959 477.486 151.776 494.723C149.223 491.825 146.031 491.236 142.201 493.053C138.37 494.87 134.245 500.664 129.777 510.486C128.893 507.245 127.272 506.852 124.915 509.307C122.558 511.762 120.545 515.298 118.875 519.865L-26.1362 621.122L-22.6006 623.48Z" fill="#ACE1FE"/>
<path fill-rule="evenodd" clip-rule="evenodd" d="M215.321 383.153C213.062 382.907 211.245 383.595 209.772 385.166C208.298 386.737 207.611 389.144 207.611 392.385L224.896 402.108L215.321 383.153Z" fill="#242441"/>
<path fill-rule="evenodd" clip-rule="evenodd" d="M211.96 391.535C189.813 393.107 176.849 394.629 173.018 396.053C169.188 397.477 154.996 406.414 130.247 422.767L132.751 432.834C145.617 431.606 155.782 429.494 163.295 426.45C174.541 421.932 177.045 415.696 181.415 415.696C185.786 415.696 200.371 421.245 207.589 419.722C212.402 418.691 218.884 413.289 227.035 403.468L211.96 391.535Z" fill="#0F4FA4"/>
<mask id="mask0" mask-type="alpha" maskUnits="userSpaceOnUse" x="130" y="391" width="98" height="42">
<path fill-rule="evenodd" clip-rule="evenodd" d="M211.96 391.535C189.813 393.107 176.849 394.629 173.018 396.053C169.188 397.477 154.996 406.414 130.247 422.767L132.751 432.834C145.617 431.606 155.782 429.494 163.295 426.45C174.541 421.932 177.045 415.696 181.415 415.696C185.786 415.696 200.371 421.245 207.589 419.722C212.402 418.691 218.884 413.289 227.035 403.468L211.96 391.535Z" fill="white"/>
</mask>
<g mask="url(#mask0)">
<path fill-rule="evenodd" clip-rule="evenodd" d="M122.193 428.267C150.479 424.338 170.858 416.972 183.282 406.12C195.706 395.267 213.973 400.325 238.183 421.245L173.706 462.543L169.532 465.195L130.099 451.101L122.193 429.789V428.267Z" fill="#16498D"/>
</g>
<mask id="mask1" mask-type="alpha" maskUnits="userSpaceOnUse" x="130" y="391" width="98" height="42">
<path fill-rule="evenodd" clip-rule="evenodd" d="M211.96 391.535C189.813 393.107 176.849 394.629 173.018 396.053C169.188 397.477 154.996 406.414 130.247 422.767L132.751 432.834C145.617 431.606 155.782 429.494 163.295 426.45C174.541 421.932 177.045 415.696 181.415 415.696C185.786 415.696 200.371 421.245 207.589 419.722C212.402 418.691 218.884 413.289 227.035 403.468L211.96 391.535Z" fill="white"/>
</mask>
<g mask="url(#mask1)">
<path fill-rule="evenodd" clip-rule="evenodd" d="M181.465 418.985C190.353 415.941 200.469 415.302 211.911 417.07C223.304 418.789 228.656 424.142 227.92 432.981L196.933 447.173L181.465 418.985Z" fill="#242441"/>
</g>
<path d="M148.585 434.224V458.777H132.674V485.441H102.965V458.777H46.9346V436.875L82.0948 361.693H112.835L79.7868 434.224H102.965V407.902H132.674V434.224H148.585ZM221.164 360.662C238.646 360.662 252.101 366.064 261.579 376.867C271.007 387.671 275.77 403.188 275.77 423.42C275.77 443.652 271.056 459.17 261.579 470.071C252.15 480.924 238.646 486.375 221.164 486.375C203.437 486.375 189.834 480.924 180.406 470.071C170.977 459.219 166.214 443.652 166.214 423.42C166.214 403.188 170.928 387.671 180.406 376.867C189.883 366.064 203.486 360.662 221.164 360.662ZM220.624 384.233C212.816 384.233 207.218 387.278 203.83 393.367C200.441 399.456 198.722 409.376 198.722 423.224C198.722 437.17 200.441 447.139 203.83 453.228C207.267 459.317 212.865 462.361 220.624 462.361C228.186 462.361 233.686 459.317 237.173 453.179C240.659 447.04 242.378 437.072 242.378 423.273C242.378 409.474 240.659 399.505 237.173 393.416C233.686 387.278 228.137 384.233 220.624 384.233ZM403.447 434.224V458.777H387.537V485.441H357.827V458.777H301.797V436.875L336.957 361.693H367.698L334.649 434.224H357.827V407.902H387.537V434.224H403.447Z" fill="#E6553F"/>
<path fill-rule="evenodd" clip-rule="evenodd" d="M198.674 623.381L299.244 544.025C304.253 527.722 310.735 517.704 318.788 513.923C330.868 508.227 334.011 520.552 334.011 519.963C334.011 519.423 336.565 464.08 354.685 459.955C372.805 455.83 365.587 478.861 370.35 463.638C375.162 448.464 387.242 425.041 405.608 426.956C417.885 428.232 423.581 444.781 422.746 476.553L226.959 623.774L198.674 623.381Z" fill="#77CEFD"/>
<path fill-rule="evenodd" clip-rule="evenodd" d="M144.362 527.526L242.575 465.111L249.204 469.138L154.772 533.909L144.362 527.526Z" fill="#184888"/>
<path fill-rule="evenodd" clip-rule="evenodd" d="M191.946 486.76C192.388 491.082 191.308 494.126 188.705 495.845C187.084 496.925 181.388 497.957 179.473 503.456C178.638 505.814 180.602 509.791 186.102 508.956C191.651 508.171 198.919 501.001 199.557 500.215C199.999 499.675 200.245 496.483 200.392 490.64L191.946 486.76Z" fill="white"/>
<mask id="mask2" mask-type="alpha" maskUnits="userSpaceOnUse" x="179" y="486" width="22" height="24">
<path fill-rule="evenodd" clip-rule="evenodd" d="M191.946 486.76C192.388 491.082 191.308 494.126 188.705 495.845C187.084 496.925 181.388 497.957 179.473 503.456C178.638 505.814 180.602 509.791 186.102 508.956C191.651 508.171 198.919 501.001 199.557 500.215C199.999 499.675 200.245 496.483 200.392 490.64L191.946 486.76Z" fill="white"/>
</mask>
<g mask="url(#mask2)">
<path fill-rule="evenodd" clip-rule="evenodd" d="M178.589 509.055C188.656 507.925 194.696 504.733 196.709 499.479C198.722 494.224 200.49 490.001 201.964 486.76L216.745 498.497L191.553 521.331L178.589 509.055Z" fill="#BFDFF3"/>
</g>
<path d="M179.62 504.053C180.75 501.254 182.566 499.094 185.169 497.522C187.723 495.951 189.834 493.594 191.406 490.5" stroke="#242441" stroke-width="0.704" stroke-linecap="round"/>
<path fill-rule="evenodd" clip-rule="evenodd" d="M220.091 400.209C204.77 420.981 196.667 433.552 195.881 437.923C195.096 442.293 193.328 460.266 190.529 491.792C191.56 493.118 192.935 494.051 194.703 494.493C196.471 494.935 198.631 495.181 201.087 495.181C208.354 480.645 212.381 469.302 213.167 461.101C214.345 448.873 231.975 435.615 237.033 429.034C240.372 424.664 245.037 414.45 250.979 398.343L220.091 400.209Z" fill="#0F58BA"/>
<mask id="mask3" mask-type="alpha" maskUnits="userSpaceOnUse" x="190" y="398" width="61" height="98">
<path fill-rule="evenodd" clip-rule="evenodd" d="M220.091 400.209C204.77 420.981 196.667 433.552 195.881 437.923C195.096 442.293 193.328 460.266 190.529 491.792C191.56 493.118 192.935 494.051 194.703 494.493C196.471 494.935 198.631 495.181 201.087 495.181C208.354 480.645 212.381 469.302 213.167 461.101C214.345 448.873 231.975 435.615 237.033 429.034C240.372 424.664 245.037 414.45 250.979 398.343L220.091 400.209Z" fill="white"/>
</mask>
<g mask="url(#mask3)">
<path fill-rule="evenodd" clip-rule="evenodd" d="M196.765 499.502C204.032 468.319 209.729 450.248 213.903 445.288C220.139 437.922 233.054 423.976 235.068 412.092C236.394 404.137 248.719 405.414 271.996 415.972L230.648 476.029L205.948 502.055L196.765 499.502Z" fill="#0F4FA4"/>
</g>
<path fill-rule="evenodd" clip-rule="evenodd" d="M217.727 384.086L210.655 391.452C215.369 399.162 220.624 403.925 226.418 405.693C232.311 407.51 229.365 400.291 217.727 384.086Z" fill="#00B780"/>
<path d="M225.638 289.38C226.155 288.584 225.265 287.088 223.65 286.04C222.035 284.991 220.306 284.786 219.79 285.582C219.273 286.379 220.163 287.874 221.778 288.923C223.393 289.971 225.121 290.176 225.638 289.38Z" stroke="#0F58BA" stroke-width="1.76"/>
<path fill-rule="evenodd" clip-rule="evenodd" d="M264.267 428.296L255.968 432.372C255.477 433.305 255.919 434.14 257.343 434.828C258.767 435.515 261.174 434.828 264.611 432.716L264.267 428.296Z" fill="#D3583D"/>
<path fill-rule="evenodd" clip-rule="evenodd" d="M277.87 446.662C279.097 446.22 279.785 446.417 279.883 447.35C279.981 448.283 279.539 449.461 278.557 451.033L277.231 448.528L277.87 446.662Z" fill="#D3583D"/>
<path fill-rule="evenodd" clip-rule="evenodd" d="M259.209 449.51L260.584 454.028L262.009 455.894C262.843 456.189 263.629 455.943 264.267 455.108C264.955 454.274 264.218 451.524 262.058 446.908L259.209 449.51Z" fill="#D76A27"/>
<path fill-rule="evenodd" clip-rule="evenodd" d="M270.111 450.345C269.669 454.127 269.669 456.336 270.111 456.877C270.799 457.711 271.634 457.859 272.616 457.22C273.303 456.778 273.745 453.832 273.942 448.332L270.111 450.345Z" fill="#D76A27"/>
<path fill-rule="evenodd" clip-rule="evenodd" d="M275.316 448.528L276.348 451.229C277.379 451.671 278.115 451.573 278.705 450.885C279.245 450.198 279.147 448.921 278.361 447.006L275.316 448.528Z" fill="#D76A27"/>
<path fill-rule="evenodd" clip-rule="evenodd" d="M264.709 450.737L265.348 455.452L266.084 457.269C266.526 458.054 267.263 458.103 268.245 457.416C269.227 456.728 269.178 453.389 268.098 447.349L264.709 450.737Z" fill="#D76A27"/>
<path fill-rule="evenodd" clip-rule="evenodd" d="M263.293 426.528C260.052 433.845 258.48 437.872 258.529 438.608C258.579 439.296 258.775 442.733 259.119 448.921C259.168 450.001 260.052 450.836 261.132 450.836C262.212 450.836 263.145 450.001 263.244 448.921L263.833 441.8L264.57 450.443C264.668 451.474 265.453 452.358 266.485 452.506C267.418 452.653 268.253 452.015 268.4 451.082C268.4 451.032 268.4 451.032 268.4 450.983L269.136 443.568L269.971 451.131C270.069 451.965 270.708 452.653 271.494 452.8L271.886 452.849C272.77 452.997 273.605 452.457 273.752 451.573C273.752 451.523 273.752 451.474 273.752 451.425L274.391 443.666L275.226 448.43C275.373 449.166 275.962 449.657 276.699 449.657C277.435 449.657 278.074 449.117 278.172 448.43L279.154 442.979C280.529 440.082 281.511 437.774 282.002 436.153C282.493 434.533 282.788 432.47 282.837 429.966L263.293 426.528Z" fill="#F56A15"/>
<mask id="mask4" mask-type="alpha" maskUnits="userSpaceOnUse" x="258" y="426" width="25" height="27">
<path fill-rule="evenodd" clip-rule="evenodd" d="M263.293 426.528C260.052 433.845 258.48 437.872 258.529 438.608C258.579 439.296 258.775 442.733 259.119 448.921C259.168 450.001 260.052 450.836 261.132 450.836C262.212 450.836 263.145 450.001 263.244 448.921L263.833 441.8L264.57 450.443C264.668 451.474 265.453 452.358 266.485 452.506C267.418 452.653 268.253 452.015 268.4 451.082C268.4 451.032 268.4 451.032 268.4 450.983L269.136 443.568L269.971 451.131C270.069 451.965 270.708 452.653 271.494 452.8L271.886 452.849C272.77 452.997 273.605 452.457 273.752 451.573C273.752 451.523 273.752 451.474 273.752 451.425L274.391 443.666L275.226 448.43C275.373 449.166 275.962 449.657 276.699 449.657C277.435 449.657 278.074 449.117 278.172 448.43L279.154 442.979C280.529 440.082 281.511 437.774 282.002 436.153C282.493 434.533 282.788 432.47 282.837 429.966L263.293 426.528Z" fill="white"/>
</mask>
<g mask="url(#mask4)">
<path fill-rule="evenodd" clip-rule="evenodd" d="M261.918 422.501C257.892 430.898 256.861 435.416 258.874 436.103C261.918 437.086 271.789 439.786 276.503 437.969C279.646 436.693 281.856 431.929 283.083 423.68L261.918 422.501Z" fill="#F39155"/>
</g>
<path d="M268.294 442.242C268.54 442.291 268.834 442.291 269.129 442.291C271.289 442.291 271.83 441.8 273.99 442.291C275.464 442.635 276.789 442.439 278.017 441.8M261.91 439.934C262.598 440.916 263.432 441.456 264.415 441.456C265.2 441.456 265.888 441.702 266.624 441.898L261.91 439.934Z" stroke="white" stroke-width="0.704" stroke-linecap="round"/>
<path fill-rule="evenodd" clip-rule="evenodd" d="M158.392 372.825L221.591 287.478C221.886 287.085 222.426 286.987 222.868 287.183C223.261 287.38 223.359 287.871 223.163 288.214C223.163 288.264 223.114 288.264 223.114 288.313L161.191 374.642C160.65 375.427 159.57 375.624 158.784 375.084C158.048 374.593 157.851 373.61 158.293 372.874C158.342 372.874 158.342 372.825 158.392 372.825Z" fill="#0F58BA"/>
<path fill-rule="evenodd" clip-rule="evenodd" d="M184.835 347.842C179.777 343.816 176.83 341.802 175.897 341.802C174.571 341.802 168.384 344.503 168.04 344.994C167.696 345.485 166.714 347.499 166.027 347.695C165.339 347.891 163.866 350.396 163.866 350.396C163.866 350.396 161.804 353.195 161.46 354.226C161.116 355.257 161.313 360.07 162.147 361.248C162.688 362.034 163.67 362.869 164.996 363.753L167.5 360.414L167.991 358.891C170.446 359.137 171.674 359.579 171.674 360.217C171.674 360.856 171.33 361.199 170.643 361.199L167.304 366.061C170.79 366.306 173.245 366.012 174.669 365.226C176.83 364.047 181.888 363.556 184.736 363.556C186.701 363.605 186.701 358.351 184.835 347.842Z" fill="#F56A15"/>
<mask id="mask5" mask-type="alpha" maskUnits="userSpaceOnUse" x="161" y="341" width="26" height="26">
<path fill-rule="evenodd" clip-rule="evenodd" d="M184.835 347.842C179.777 343.816 176.83 341.802 175.897 341.802C174.571 341.802 168.384 344.503 168.04 344.994C167.696 345.485 166.714 347.499 166.027 347.695C165.339 347.891 163.866 350.396 163.866 350.396C163.866 350.396 161.804 353.195 161.46 354.226C161.116 355.257 161.313 360.07 162.147 361.248C162.688 362.034 163.67 362.869 164.996 363.753L167.5 360.414L167.991 358.891C170.446 359.137 171.674 359.579 171.674 360.217C171.674 360.856 171.33 361.199 170.643 361.199L167.304 366.061C170.79 366.306 173.245 366.012 174.669 365.226C176.83 364.047 181.888 363.556 184.736 363.556C186.701 363.605 186.701 358.351 184.835 347.842Z" fill="white"/>
</mask>
<g mask="url(#mask5)">
<path fill-rule="evenodd" clip-rule="evenodd" d="M182.625 363.115C174.129 359.432 170.348 356.093 171.379 353.048C172.41 350.003 175.553 345.682 180.955 339.937L195.049 346.517L182.625 363.115Z" fill="#F39155"/>
</g>
<path fill-rule="evenodd" clip-rule="evenodd" d="M184.136 346.667C194.988 350.007 203.336 351.431 209.18 350.842C217.921 350.007 225.139 346.667 229.166 346.667C231.867 346.667 236.63 346.962 243.456 347.502L262.215 353.051C269.728 355.408 276.308 361.154 282.054 370.337C287.799 379.52 288.339 400.292 283.723 432.751L262.215 428.037C262.902 421.751 263.835 414.631 265.063 406.577C266.291 398.524 265.358 392.238 262.215 387.77C253.474 407.216 247.581 417.332 244.586 418.117C240.068 419.296 230.639 417.97 224.108 408.738C222.144 405.988 220.72 397.002 219.59 392.287C218.461 387.72 216.251 384.676 212.863 383.252C215.122 382.712 217.135 381.386 218.903 379.372C220.671 377.359 221.997 374.855 222.782 371.81C212.716 374.363 203.582 374.363 195.43 371.81C187.278 369.256 181.189 367.047 177.261 365.131L184.136 346.667Z" fill="#FFBC4C"/>
<mask id="mask6" mask-type="alpha" maskUnits="userSpaceOnUse" x="177" y="346" width="110" height="87">
<path fill-rule="evenodd" clip-rule="evenodd" d="M184.136 346.667C194.988 350.007 203.336 351.431 209.18 350.842C217.921 350.007 225.139 346.667 229.166 346.667C231.867 346.667 236.63 346.962 243.456 347.502L262.215 353.051C269.728 355.408 276.308 361.154 282.054 370.337C287.799 379.52 288.339 400.292 283.723 432.751L262.215 428.037C262.902 421.751 263.835 414.631 265.063 406.577C266.291 398.524 265.358 392.238 262.215 387.77C253.474 407.216 247.581 417.332 244.586 418.117C240.068 419.296 230.639 417.97 224.108 408.738C222.144 405.988 220.72 397.002 219.59 392.287C218.461 387.72 216.251 384.676 212.863 383.252C215.122 382.712 217.135 381.386 218.903 379.372C220.671 377.359 221.997 374.855 222.782 371.81C212.716 374.363 203.582 374.363 195.43 371.81C187.278 369.256 181.189 367.047 177.261 365.131L184.136 346.667Z" fill="white"/>
</mask>
<g mask="url(#mask6)">
<path opacity="0.458" fill-rule="evenodd" clip-rule="evenodd" d="M221.947 373.333C229.902 380.944 239.527 385.413 250.822 386.739C267.763 388.752 264.08 392.435 264.424 395.971C264.67 398.328 263.245 401.667 260.25 406.037C252.884 405.055 247.679 403.729 244.634 402.011C237.759 398.18 232.161 390.52 229.362 387.77C224.599 383.203 219.492 380.993 213.894 381.239L221.947 373.333Z" fill="#F39155"/>
</g>
<mask id="mask7" mask-type="alpha" maskUnits="userSpaceOnUse" x="177" y="346" width="110" height="87">
<path fill-rule="evenodd" clip-rule="evenodd" d="M184.136 346.667C194.988 350.007 203.336 351.431 209.18 350.842C217.921 350.007 225.139 346.667 229.166 346.667C231.867 346.667 236.63 346.962 243.456 347.502L262.215 353.051C269.728 355.408 276.308 361.154 282.054 370.337C287.799 379.52 288.339 400.292 283.723 432.751L262.215 428.037C262.902 421.751 263.835 414.631 265.063 406.577C266.291 398.524 265.358 392.238 262.215 387.77C253.474 407.216 247.581 417.332 244.586 418.117C240.068 419.296 230.639 417.97 224.108 408.738C222.144 405.988 220.72 397.002 219.59 392.287C218.461 387.72 216.251 384.676 212.863 383.252C215.122 382.712 217.135 381.386 218.903 379.372C220.671 377.359 221.997 374.855 222.782 371.81C212.716 374.363 203.582 374.363 195.43 371.81C187.278 369.256 181.189 367.047 177.261 365.131L184.136 346.667Z" fill="white"/>
</mask>
<g mask="url(#mask7)">
<path opacity="0.4334" d="M210.506 382.565C217.675 383.007 222.291 385.806 224.452 390.913L224.55 391.158L224.698 391.502C224.894 391.993 225.09 392.533 225.385 393.319L225.778 394.449L226.023 395.087C227.055 397.886 227.644 399.261 228.773 401.029C232.555 407.216 239.724 411.881 253.228 415.957L253.572 414.828C240.313 410.801 233.389 406.283 229.756 400.39L229.657 400.243L229.559 400.047C228.577 398.377 227.988 396.953 226.858 393.908L226.416 392.73L226.22 392.19C225.974 391.502 225.778 391.011 225.532 390.471C223.175 384.873 218.166 381.828 210.604 381.386L210.506 382.565Z" fill="#F39155"/>
</g>
<mask id="mask8" mask-type="alpha" maskUnits="userSpaceOnUse" x="177" y="346" width="110" height="87">
<path fill-rule="evenodd" clip-rule="evenodd" d="M184.136 346.667C194.988 350.007 203.336 351.431 209.18 350.842C217.921 350.007 225.139 346.667 229.166 346.667C231.867 346.667 236.63 346.962 243.456 347.502L262.215 353.051C269.728 355.408 276.308 361.154 282.054 370.337C287.799 379.52 288.339 400.292 283.723 432.751L262.215 428.037C262.902 421.751 263.835 414.631 265.063 406.577C266.291 398.524 265.358 392.238 262.215 387.77C253.474 407.216 247.581 417.332 244.586 418.117C240.068 419.296 230.639 417.97 224.108 408.738C222.144 405.988 220.72 397.002 219.59 392.287C218.461 387.72 216.251 384.676 212.863 383.252C215.122 382.712 217.135 381.386 218.903 379.372C220.671 377.359 221.997 374.855 222.782 371.81C212.716 374.363 203.582 374.363 195.43 371.81C187.278 369.256 181.189 367.047 177.261 365.131L184.136 346.667Z" fill="white"/>
</mask>
<g mask="url(#mask8)">
<path d="M234.912 341.659C225.041 353.985 226.073 363.659 238.055 370.681C256.028 381.239 278.764 369.355 286.817 358.945" stroke="#F8A051" stroke-width="3.52"/>
</g>
<mask id="mask9" mask-type="alpha" maskUnits="userSpaceOnUse" x="177" y="346" width="110" height="87">
<path fill-rule="evenodd" clip-rule="evenodd" d="M184.136 346.667C194.988 350.007 203.336 351.431 209.18 350.842C217.921 350.007 225.139 346.667 229.166 346.667C231.867 346.667 236.63 346.962 243.456 347.502L262.215 353.051C269.728 355.408 276.308 361.154 282.054 370.337C287.799 379.52 288.339 400.292 283.723 432.751L262.215 428.037C262.902 421.751 263.835 414.631 265.063 406.577C266.291 398.524 265.358 392.238 262.215 387.77C253.474 407.216 247.581 417.332 244.586 418.117C240.068 419.296 230.639 417.97 224.108 408.738C222.144 405.988 220.72 397.002 219.59 392.287C218.461 387.72 216.251 384.676 212.863 383.252C215.122 382.712 217.135 381.386 218.903 379.372C220.671 377.359 221.997 374.855 222.782 371.81C212.716 374.363 203.582 374.363 195.43 371.81C187.278 369.256 181.189 367.047 177.261 365.131L184.136 346.667Z" fill="white"/>
</mask>
<g mask="url(#mask9)">
<path fill-rule="evenodd" clip-rule="evenodd" d="M277.536 435.157L292.121 397.738V440.019L277.536 435.157Z" fill="#242441"/>
</g>
<mask id="mask10" mask-type="alpha" maskUnits="userSpaceOnUse" x="177" y="346" width="110" height="87">
<path fill-rule="evenodd" clip-rule="evenodd" d="M184.136 346.667C194.988 350.007 203.336 351.431 209.18 350.842C217.921 350.007 225.139 346.667 229.166 346.667C231.867 346.667 236.63 346.962 243.456 347.502L262.215 353.051C269.728 355.408 276.308 361.154 282.054 370.337C287.799 379.52 288.339 400.292 283.723 432.751L262.215 428.037C262.902 421.751 263.835 414.631 265.063 406.577C266.291 398.524 265.358 392.238 262.215 387.77C253.474 407.216 247.581 417.332 244.586 418.117C240.068 419.296 230.639 417.97 224.108 408.738C222.144 405.988 220.72 397.002 219.59 392.287C218.461 387.72 216.251 384.676 212.863 383.252C215.122 382.712 217.135 381.386 218.903 379.372C220.671 377.359 221.997 374.855 222.782 371.81C212.716 374.363 203.582 374.363 195.43 371.81C187.278 369.256 181.189 367.047 177.261 365.131L184.136 346.667Z" fill="white"/>
</mask>
<g mask="url(#mask10)">
<path d="M280.531 428.184C281.128 428.184 281.611 427.7 281.611 427.104C281.611 426.507 281.128 426.023 280.531 426.023C279.934 426.023 279.451 426.507 279.451 427.104C279.451 427.7 279.934 428.184 280.531 428.184Z" stroke="#242441" stroke-width="0.704" stroke-linecap="round"/>
</g>
<mask id="mask11" mask-type="alpha" maskUnits="userSpaceOnUse" x="177" y="346" width="110" height="87">
<path fill-rule="evenodd" clip-rule="evenodd" d="M184.136 346.667C194.988 350.007 203.336 351.431 209.18 350.842C217.921 350.007 225.139 346.667 229.166 346.667C231.867 346.667 236.63 346.962 243.456 347.502L262.215 353.051C269.728 355.408 276.308 361.154 282.054 370.337C287.799 379.52 288.339 400.292 283.723 432.751L262.215 428.037C262.902 421.751 263.835 414.631 265.063 406.577C266.291 398.524 265.358 392.238 262.215 387.77C253.474 407.216 247.581 417.332 244.586 418.117C240.068 419.296 230.639 417.97 224.108 408.738C222.144 405.988 220.72 397.002 219.59 392.287C218.461 387.72 216.251 384.676 212.863 383.252C215.122 382.712 217.135 381.386 218.903 379.372C220.671 377.359 221.997 374.855 222.782 371.81C212.716 374.363 203.582 374.363 195.43 371.81C187.278 369.256 181.189 367.047 177.261 365.131L184.136 346.667Z" fill="white"/>
</mask>
<g mask="url(#mask11)">
<path fill-rule="evenodd" clip-rule="evenodd" d="M197.935 388.654L171.221 358.699L208.934 377.85L197.935 388.654Z" fill="#FFA452"/>
</g>
<mask id="mask12" mask-type="alpha" maskUnits="userSpaceOnUse" x="177" y="346" width="110" height="87">
<path fill-rule="evenodd" clip-rule="evenodd" d="M184.136 346.667C194.988 350.007 203.336 351.431 209.18 350.842C217.921 350.007 225.139 346.667 229.166 346.667C231.867 346.667 236.63 346.962 243.456 347.502L262.215 353.051C269.728 355.408 276.308 361.154 282.054 370.337C287.799 379.52 288.339 400.292 283.723 432.751L262.215 428.037C262.902 421.751 263.835 414.631 265.063 406.577C266.291 398.524 265.358 392.238 262.215 387.77C253.474 407.216 247.581 417.332 244.586 418.117C240.068 419.296 230.639 417.97 224.108 408.738C222.144 405.988 220.72 397.002 219.59 392.287C218.461 387.72 216.251 384.676 212.863 383.252C215.122 382.712 217.135 381.386 218.903 379.372C220.671 377.359 221.997 374.855 222.782 371.81C212.716 374.363 203.582 374.363 195.43 371.81C187.278 369.256 181.189 367.047 177.261 365.131L184.136 346.667Z" fill="white"/>
</mask>
<g mask="url(#mask12)">
<path opacity="0.2531" fill-rule="evenodd" clip-rule="evenodd" d="M227.3 415.956C222.929 405.006 221.947 396.658 224.304 390.961C227.84 382.417 228.675 371.859 222.782 371.859C221.898 371.859 221.162 373.529 220.081 373.872C217.675 374.609 212.617 377.064 204.957 381.238L227.3 415.956Z" fill="#EF9535"/>
</g>
<mask id="mask13" mask-type="alpha" maskUnits="userSpaceOnUse" x="177" y="346" width="110" height="87">
<path fill-rule="evenodd" clip-rule="evenodd" d="M184.136 346.667C194.988 350.007 203.336 351.431 209.18 350.842C217.921 350.007 225.139 346.667 229.166 346.667C231.867 346.667 236.63 346.962 243.456 347.502L262.215 353.051C269.728 355.408 276.308 361.154 282.054 370.337C287.799 379.52 288.339 400.292 283.723 432.751L262.215 428.037C262.902 421.751 263.835 414.631 265.063 406.577C266.291 398.524 265.358 392.238 262.215 387.77C253.474 407.216 247.581 417.332 244.586 418.117C240.068 419.296 230.639 417.97 224.108 408.738C222.144 405.988 220.72 397.002 219.59 392.287C218.461 387.72 216.251 384.676 212.863 383.252C215.122 382.712 217.135 381.386 218.903 379.372C220.671 377.359 221.997 374.855 222.782 371.81C212.716 374.363 203.582 374.363 195.43 371.81C187.278 369.256 181.189 367.047 177.261 365.131L184.136 346.667Z" fill="white"/>
</mask>
<g mask="url(#mask13)">
<path d="M185.511 371.81L195.921 342.641" stroke="#242441" stroke-width="0.704" stroke-linecap="round"/>
</g>
<mask id="mask14" mask-type="alpha" maskUnits="userSpaceOnUse" x="177" y="346" width="110" height="87">
<path fill-rule="evenodd" clip-rule="evenodd" d="M184.136 346.667C194.988 350.007 203.336 351.431 209.18 350.842C217.921 350.007 225.139 346.667 229.166 346.667C231.867 346.667 236.63 346.962 243.456 347.502L262.215 353.051C269.728 355.408 276.308 361.154 282.054 370.337C287.799 379.52 288.339 400.292 283.723 432.751L262.215 428.037C262.902 421.751 263.835 414.631 265.063 406.577C266.291 398.524 265.358 392.238 262.215 387.77C253.474 407.216 247.581 417.332 244.586 418.117C240.068 419.296 230.639 417.97 224.108 408.738C222.144 405.988 220.72 397.002 219.59 392.287C218.461 387.72 216.251 384.676 212.863 383.252C215.122 382.712 217.135 381.386 218.903 379.372C220.671 377.359 221.997 374.855 222.782 371.81C212.716 374.363 203.582 374.363 195.43 371.81C187.278 369.256 181.189 367.047 177.261 365.131L184.136 346.667Z" fill="white"/>
</mask>
<g mask="url(#mask14)">
<path d="M186.591 351.824C187.188 351.824 187.671 351.34 187.671 350.743C187.671 350.147 187.188 349.663 186.591 349.663C185.994 349.663 185.511 350.147 185.511 350.743C185.511 351.34 185.994 351.824 186.591 351.824Z" stroke="#242441" stroke-width="0.704" stroke-linecap="round"/>
</g>
<path d="M165.315 347.682L169.391 346.553C170.373 344.834 171.159 343.95 171.797 343.95C172.73 343.95 172.927 342.084 173.811 342.084" stroke="white" stroke-width="0.704" stroke-linecap="round"/>
<path fill-rule="evenodd" clip-rule="evenodd" d="M130.574 423.322C126.99 424.844 124.387 424.255 122.717 421.554C120.213 417.527 120.36 412.666 117.708 411.438C115.941 410.603 114.369 411.242 112.896 413.304L117.119 437.759L131.753 433.389V427.889L130.574 423.322Z" fill="white"/>
<mask id="mask15" mask-type="alpha" maskUnits="userSpaceOnUse" x="112" y="411" width="20" height="27">
<path fill-rule="evenodd" clip-rule="evenodd" d="M130.574 423.322C126.99 424.844 124.387 424.255 122.717 421.554C120.213 417.527 120.36 412.666 117.708 411.438C115.941 410.603 114.369 411.242 112.896 413.304L117.119 437.759L131.753 433.389V427.889L130.574 423.322Z" fill="white"/>
</mask>
<g mask="url(#mask15)">
<path fill-rule="evenodd" clip-rule="evenodd" d="M136.614 429.067C130.574 432.062 125.811 432.062 122.324 429.067C117.119 424.5 120.851 412.764 113.436 412.764C108.525 412.764 107.887 424.5 111.57 447.973L132.882 443.111L136.614 429.067Z" fill="#BFDFF3"/>
</g>
<path fill-rule="evenodd" clip-rule="evenodd" d="M111.193 392.721C114.483 389.971 115.956 386.73 115.711 382.949C115.318 377.547 111.733 375.632 108.738 376.222C106.724 376.565 106.135 379.954 106.872 386.338L111.193 392.721Z" fill="#0F58BA"/>
<path fill-rule="evenodd" clip-rule="evenodd" d="M104.957 381.132L123.421 496.139L126.024 495.942L108.935 376.172C106.577 376.319 104.76 378.382 104.908 380.788C104.908 380.886 104.908 381.033 104.957 381.132Z" fill="#184888"/>
<path d="M117.135 437.752L131.425 433.48" stroke="#242441" stroke-width="0.704" stroke-linecap="round"/>
<path fill-rule="evenodd" clip-rule="evenodd" d="M253.169 348.533C260.437 339.497 267.459 332.77 274.138 328.399C280.816 324.029 286.709 320.542 291.62 317.989C288.821 321.672 287.789 325.158 288.575 328.399C289.754 333.261 293.437 337.288 291.62 342.149C290.392 345.39 279.392 349.024 258.718 353.051L253.169 348.533Z" fill="#097C5A"/>
<mask id="mask16" mask-type="alpha" maskUnits="userSpaceOnUse" x="253" y="317" width="40" height="37">
<path fill-rule="evenodd" clip-rule="evenodd" d="M253.169 348.533C260.437 339.497 267.459 332.77 274.138 328.399C280.816 324.029 286.709 320.542 291.62 317.989C288.821 321.672 287.789 325.158 288.575 328.399C289.754 333.261 293.437 337.288 291.62 342.149C290.392 345.39 279.392 349.024 258.718 353.051L253.169 348.533Z" fill="white"/>
</mask>
<g mask="url(#mask16)">
<path fill-rule="evenodd" clip-rule="evenodd" d="M258.522 347.354C275.415 333.26 287.446 326.238 294.615 326.238C301.785 326.238 303.062 336.207 298.495 356.095L257.884 352.854L258.522 347.354Z" fill="#147055"/>
</g>
<path fill-rule="evenodd" clip-rule="evenodd" d="M259.551 354.563C266.721 349.75 272.221 347.344 276.002 347.344C281.698 347.344 305.22 351.715 325.207 345.183C338.514 340.813 344.8 336.246 344.014 331.434C344.702 328.193 344.407 325.639 343.179 323.724C341.952 321.809 342.934 317.242 346.224 309.974C343.425 317.684 334.635 324.117 319.854 329.273C297.658 336.934 282.386 332.416 272.663 337.965C266.181 341.648 261.81 345.036 259.551 348.179V354.563Z" fill="#00B780"/>
<mask id="mask17" mask-type="alpha" maskUnits="userSpaceOnUse" x="259" y="309" width="88" height="46">
<path fill-rule="evenodd" clip-rule="evenodd" d="M259.551 354.563C266.721 349.75 272.221 347.344 276.002 347.344C281.698 347.344 305.22 351.715 325.207 345.183C338.514 340.813 344.8 336.246 344.014 331.434C344.702 328.193 344.407 325.639 343.179 323.724C341.952 321.809 342.934 317.242 346.224 309.974C343.425 317.684 334.635 324.117 319.854 329.273C297.658 336.934 282.386 332.416 272.663 337.965C266.181 341.648 261.81 345.036 259.551 348.179V354.563Z" fill="white"/>
</mask>
<g mask="url(#mask17)">
<path fill-rule="evenodd" clip-rule="evenodd" d="M268.292 352.058C268.734 348.916 273.35 346.951 282.042 346.166C295.153 344.987 322.505 353.875 348.876 332.219C349.71 331.532 354.032 309.532 350.545 309.09C349.809 308.992 347.206 307.666 346.175 309.925C342.983 317.144 334.095 327.063 334.586 326.867C344.652 323.086 348.826 337.768 347.01 371.013L287.542 366.152L268.292 352.058Z" fill="#242441"/>
</g>
<path fill-rule="evenodd" clip-rule="evenodd" d="M252.35 360.407C254.903 360.407 256.769 359.915 257.899 358.884C259.568 357.362 262.269 355.545 262.269 350.683C262.269 347.442 260.256 345.134 256.229 343.809L252.35 360.407Z" fill="#097C5A"/>
<path fill-rule="evenodd" clip-rule="evenodd" d="M238.256 348.277C235.997 349.701 235.015 351.666 235.211 354.121C235.555 357.804 237.912 364.04 246.456 363.353C255.001 362.665 259.371 353.974 259.371 352.108C259.371 350.88 258.291 348.13 256.179 343.907L238.256 348.277Z" fill="#0A9269"/>
<path fill-rule="evenodd" clip-rule="evenodd" d="M238.403 345.674C236.144 347.148 235.162 349.063 235.358 351.567C235.702 355.25 238.059 361.487 246.604 360.799C255.148 360.112 259.519 351.42 259.519 349.554C259.519 348.326 258.438 345.576 256.327 341.353L238.403 345.674Z" fill="#00B780"/>
<path fill-rule="evenodd" clip-rule="evenodd" d="M238.174 342.185V346.605C237.978 349.404 237.879 351.564 237.879 353.038C237.879 355.247 247.062 357.261 248.634 357.261C249.125 357.261 249.861 355.149 251.187 354.707C252.12 354.413 253.446 353.234 255.165 351.221L253.593 346.948L238.174 342.185Z" fill="#FFA7C5"/>
<mask id="mask18" mask-type="alpha" maskUnits="userSpaceOnUse" x="237" y="342" width="19" height="16">
<path fill-rule="evenodd" clip-rule="evenodd" d="M238.174 342.185V346.605C237.978 349.404 237.879 351.564 237.879 353.038C237.879 355.247 247.062 357.261 248.634 357.261C249.125 357.261 249.861 355.149 251.187 354.707C252.12 354.413 253.446 353.234 255.165 351.221L253.593 346.948L238.174 342.185Z" fill="white"/>
</mask>
<g mask="url(#mask18)">
<path fill-rule="evenodd" clip-rule="evenodd" d="M242.937 344.641C244.852 347.44 246.669 348.815 248.486 348.815C250.302 348.815 251.677 348.716 252.66 348.471C253.347 349.6 253.544 350.73 253.347 351.81C253.151 352.891 252.07 354.118 250.155 355.346L250.99 358.685L256.048 350.533L253.151 345.181L242.937 344.641Z" fill="#F17EA5"/>
</g>
<mask id="mask19" mask-type="alpha" maskUnits="userSpaceOnUse" x="237" y="342" width="19" height="16">
<path fill-rule="evenodd" clip-rule="evenodd" d="M238.174 342.185V346.605C237.978 349.404 237.879 351.564 237.879 353.038C237.879 355.247 247.062 357.261 248.634 357.261C249.125 357.261 249.861 355.149 251.187 354.707C252.12 354.413 253.446 353.234 255.165 351.221L253.593 346.948L238.174 342.185Z" fill="white"/>
</mask>
<g mask="url(#mask19)">
<path d="M247.258 354.707C248.153 354.707 248.879 353.982 248.879 353.087C248.879 352.192 248.153 351.466 247.258 351.466C246.363 351.466 245.638 352.192 245.638 353.087C245.638 353.982 246.363 354.707 247.258 354.707Z" fill="#FC91B5"/>
</g>
<mask id="mask20" mask-type="alpha" maskUnits="userSpaceOnUse" x="237" y="342" width="19" height="16">
<path fill-rule="evenodd" clip-rule="evenodd" d="M238.174 342.185V346.605C237.978 349.404 237.879 351.564 237.879 353.038C237.879 355.247 247.062 357.261 248.634 357.261C249.125 357.261 249.861 355.149 251.187 354.707C252.12 354.413 253.446 353.234 255.165 351.221L253.593 346.948L238.174 342.185Z" fill="white"/>
</mask>
<g mask="url(#mask20)">
<path d="M238.37 351.123C239.183 351.123 239.843 350.463 239.843 349.649C239.843 348.836 239.183 348.176 238.37 348.176C237.556 348.176 236.896 348.836 236.896 349.649C236.896 350.463 237.556 351.123 238.37 351.123Z" fill="#FC91B5"/>
</g>
<path d="M246.997 350.487C247.295 350.487 247.537 350.245 247.537 349.946C247.537 349.648 247.295 349.406 246.997 349.406C246.698 349.406 246.457 349.648 246.457 349.946C246.457 350.245 246.698 350.487 246.997 350.487Z" fill="#0B2754"/>
<path d="M240.269 348.031C240.567 348.031 240.809 347.789 240.809 347.491C240.809 347.193 240.567 346.951 240.269 346.951C239.97 346.951 239.729 347.193 239.729 347.491C239.729 347.789 239.97 348.031 240.269 348.031Z" fill="#0B2754"/>
<path fill-rule="evenodd" clip-rule="evenodd" d="M247.475 333.937C244.725 332.66 242.417 333.102 240.6 335.213C237.801 338.405 237.948 333.004 235.346 334.87C232.743 336.736 233.431 344.985 238.096 343.856C242.761 342.727 243.105 347.785 246.886 348.374C250.667 348.963 252.14 347.343 252.14 348.374C252.14 348.472 249.488 356.034 248.654 356.133C240.698 357.409 237.948 351.86 237.703 352.695C237.654 352.892 237.703 354.168 238.047 355.052C239.225 357.9 245.658 358.932 248.163 358.342C248.85 358.195 249.439 357.557 249.93 356.427C252.189 351.909 253.466 349.994 253.712 350.682C254.154 351.713 253.319 353.186 252.435 353.923C252.042 354.267 253.221 354.267 254.497 353.137C256.02 351.762 257.738 348.816 258.377 344.249C259.162 338.602 255.529 335.164 247.475 333.937Z" fill="#0A357B"/>
<mask id="mask21" mask-type="alpha" maskUnits="userSpaceOnUse" x="233" y="333" width="26" height="26">
<path fill-rule="evenodd" clip-rule="evenodd" d="M247.475 333.937C244.725 332.66 242.417 333.102 240.6 335.213C237.801 338.405 237.948 333.004 235.346 334.87C232.743 336.736 233.431 344.985 238.096 343.856C242.761 342.727 243.105 347.785 246.886 348.374C250.667 348.963 252.14 347.343 252.14 348.374C252.14 348.472 249.488 356.034 248.654 356.133C240.698 357.409 237.948 351.86 237.703 352.695C237.654 352.892 237.703 354.168 238.047 355.052C239.225 357.9 245.658 358.932 248.163 358.342C248.85 358.195 249.439 357.557 249.93 356.427C252.189 351.909 253.466 349.994 253.712 350.682C254.154 351.713 253.319 353.186 252.435 353.923C252.042 354.267 253.221 354.267 254.497 353.137C256.02 351.762 257.738 348.816 258.377 344.249C259.162 338.602 255.529 335.164 247.475 333.937Z" fill="white"/>
</mask>
<g mask="url(#mask21)">
<path opacity="0.6602" fill-rule="evenodd" clip-rule="evenodd" d="M236.377 334.231C237.261 334.869 237.85 335.36 238.047 335.753C238.93 337.275 239.716 338.258 241.926 338.258C243.792 338.258 246.788 333.052 255.676 337.767C256.02 337.914 257.689 343.316 257.345 346.655C256.953 350.387 253.27 355.248 253.662 355.396C254.399 355.69 240.305 356.034 241.386 358.588C242.957 362.271 259.653 368.163 260.194 364.775C260.488 362.909 259.997 352.94 258.671 334.918L242.761 331.579L236.377 334.231Z" fill="#081E41"/>
</g>
<path d="M238.108 343.465C239.385 344.545 240.515 344.594 241.399 343.71" stroke="#061631" stroke-width="1.6632" stroke-linecap="round"/>
<path d="M246.505 345.134C247.438 346.509 248.47 346.951 249.599 346.313" stroke="#061631" stroke-width="1.6632" stroke-linecap="round"/>
<path d="M243.559 349.112C242.626 350.438 242.184 351.126 242.184 351.126C242.184 351.126 242.577 351.273 243.314 351.519" stroke="#E74E82" stroke-width="0.528" stroke-linecap="round"/>
<path fill-rule="evenodd" clip-rule="evenodd" d="M241.275 352.372C241.471 352.814 242.012 353.109 242.846 353.207C244.123 353.354 244.565 353.845 244.565 353.993C244.712 354.631 244.565 355.073 243.583 355.073C242.601 355.073 241.668 354.484 241.275 354.042C241.029 353.698 241.029 353.158 241.275 352.372Z" fill="#0A357B"/>
<mask id="mask22" mask-type="alpha" maskUnits="userSpaceOnUse" x="241" y="352" width="4" height="4">
<path fill-rule="evenodd" clip-rule="evenodd" d="M241.275 352.372C241.471 352.814 242.012 353.109 242.846 353.207C244.123 353.354 244.565 353.845 244.565 353.993C244.712 354.631 244.565 355.073 243.583 355.073C242.601 355.073 241.668 354.484 241.275 354.042C241.029 353.698 241.029 353.158 241.275 352.372Z" fill="white"/>
</mask>
<g mask="url(#mask22)">
<path fill-rule="evenodd" clip-rule="evenodd" d="M240.597 354.243C241.137 353.555 241.824 353.261 242.61 353.359C243.396 353.457 244.231 353.359 245.114 352.917L244.623 356.109L240.597 354.243Z" fill="#E74E82"/>
<mask id="mask23" mask-type="alpha" maskUnits="userSpaceOnUse" x="240" y="352" width="6" height="5">
<path fill-rule="evenodd" clip-rule="evenodd" d="M240.597 354.243C241.137 353.555 241.824 353.261 242.61 353.359C243.396 353.457 244.231 353.359 245.114 352.917L244.623 356.109L240.597 354.243Z" fill="white"/>
</mask>
<g mask="url(#mask23)">
<path fill-rule="evenodd" clip-rule="evenodd" d="M245.409 353.605C244.82 353.851 243.985 353.949 242.905 353.752C241.579 353.556 240.99 354.194 240.744 354.047C240.597 353.949 240.842 353.605 241.383 352.917L245.409 353.605Z" fill="#D3346A"/>
</g>
</g>
<mask id="mask24" mask-type="alpha" maskUnits="userSpaceOnUse" x="241" y="352" width="4" height="4">
<path fill-rule="evenodd" clip-rule="evenodd" d="M241.275 352.372C241.471 352.814 242.012 353.109 242.846 353.207C244.123 353.354 244.565 353.845 244.565 353.993C244.712 354.631 244.565 355.073 243.583 355.073C242.601 355.073 241.668 354.484 241.275 354.042C241.029 353.698 241.029 353.158 241.275 352.372Z" fill="white"/>
</mask>
<g mask="url(#mask24)">
<path fill-rule="evenodd" clip-rule="evenodd" d="M241.324 351.832C241.275 352.519 241.472 353.01 241.914 353.207C242.355 353.403 243.632 353.648 245.744 353.845L241.324 351.832Z" fill="white"/>
</g>
<path fill-rule="evenodd" clip-rule="evenodd" d="M249.994 326.738C253.169 326.245 255.703 326.192 257.562 326.681C260.367 327.364 267.905 328.073 267.999 328.762C268.093 329.451 266.57 330.876 265.682 332.966C264.794 335.056 261.458 341.04 258.732 342.038C256.957 342.677 254.023 337.59 249.994 326.738Z" fill="#F56A15"/>
<mask id="mask25" mask-type="alpha" maskUnits="userSpaceOnUse" x="247" y="323" width="20" height="16">
<path fill-rule="evenodd" clip-rule="evenodd" d="M247.756 331.744C250.31 329.682 252.618 328.356 254.533 327.717C257.479 326.784 264.747 323.396 265.189 323.838C265.631 324.28 265.189 326.146 265.631 328.159C266.073 330.173 266.711 336.36 264.845 338.521C263.667 339.994 257.921 337.735 247.756 331.744Z" fill="white"/>
</mask>
<g mask="url(#mask25)">
<path d="M260.278 343.333C259.394 339.65 259.738 337.44 261.309 336.802C263.666 335.82 264.501 335.476 264.501 332.775C264.501 330.074 262.488 327.766 264.501 326.244" stroke="#F44F1F" stroke-width="1.056"/>
</g>
<mask id="mask26" mask-type="alpha" maskUnits="userSpaceOnUse" x="247" y="323" width="20" height="16">
<path fill-rule="evenodd" clip-rule="evenodd" d="M247.756 331.744C250.31 329.682 252.618 328.356 254.533 327.717C257.479 326.784 264.747 323.396 265.189 323.838C265.631 324.28 265.189 326.146 265.631 328.159C266.073 330.173 266.711 336.36 264.845 338.521C263.667 339.994 257.921 337.735 247.756 331.744Z" fill="white"/>
</mask>
<g mask="url(#mask26)">
<path d="M256.104 338.521C255.22 334.838 255.564 332.628 257.136 331.99C259.493 331.007 260.327 330.664 260.327 327.963C260.327 325.262 258.314 322.954 260.327 321.432" stroke="#F44F1F" stroke-width="1.056"/>
</g>
<mask id="mask27" mask-type="alpha" maskUnits="userSpaceOnUse" x="247" y="323" width="20" height="16">
<path fill-rule="evenodd" clip-rule="evenodd" d="M247.756 331.744C250.31 329.682 252.618 328.356 254.533 327.717C257.479 326.784 264.747 323.396 265.189 323.838C265.631 324.28 265.189 326.146 265.631 328.159C266.073 330.173 266.711 336.36 264.845 338.521C263.667 339.994 257.921 337.735 247.756 331.744Z" fill="white"/>
</mask>
<g mask="url(#mask27)">
<path d="M249.819 338.767C248.886 335.084 249.23 332.923 250.801 332.236C253.158 331.253 253.993 330.91 253.993 328.209C253.993 325.508 251.98 323.2 253.993 321.678" stroke="#F44F1F" stroke-width="1.056"/>
</g>
<mask id="mask28" mask-type="alpha" maskUnits="userSpaceOnUse" x="247" y="323" width="20" height="16">
<path fill-rule="evenodd" clip-rule="evenodd" d="M247.756 331.744C250.31 329.682 252.618 328.356 254.533 327.717C257.479 326.784 264.747 323.396 265.189 323.838C265.631 324.28 265.189 326.146 265.631 328.159C266.073 330.173 266.711 336.36 264.845 338.521C263.667 339.994 257.921 337.735 247.756 331.744Z" fill="white"/>
</mask>
<g mask="url(#mask28)">
<path opacity="0.4265" fill-rule="evenodd" clip-rule="evenodd" d="M256.301 340.043C260.671 340.141 263.274 339.11 264.207 336.851C265.533 333.512 267.252 327.963 269.756 326.293C272.26 324.623 277.662 349.275 269.756 349.422C264.502 349.52 260.278 347.163 257.185 342.4L256.301 340.043Z" fill="#D74216"/>
</g>
<path d="M270.626 327.283C270.84 326.583 270.446 325.841 269.745 325.627C269.045 325.413 268.304 325.807 268.09 326.507C267.876 327.208 268.27 327.949 268.97 328.163C269.67 328.377 270.412 327.983 270.626 327.283Z" fill="#F56A15"/>
<path fill-rule="evenodd" clip-rule="evenodd" d="M251.667 326.644C253.1 326.801 253.352 329.063 254.302 332.607C255.251 336.15 258.314 341.182 259.362 342.556C260.411 343.93 256.914 346.469 256.079 346.25C255.227 346.081 252.859 344.635 249.877 339.24C246.896 333.845 245.278 330.29 245.916 329.305C246.555 328.32 250.233 326.487 251.667 326.644Z" fill="#F39155"/>
<mask id="mask29" mask-type="alpha" maskUnits="userSpaceOnUse" x="242" y="329" width="22" height="14">
<path fill-rule="evenodd" clip-rule="evenodd" d="M246.136 329.753C247.56 329.115 249.132 330.687 252.127 332.847C255.123 335.008 260.966 337.218 262.783 337.66C264.6 338.102 262.931 341.834 262.047 342.177C261.163 342.472 258.118 342.668 252.127 340.164C246.136 337.66 242.502 335.794 242.502 334.713C242.502 333.633 244.712 330.392 246.136 329.753Z" fill="white"/>
</mask>
<g mask="url(#mask29)">
<path fill-rule="evenodd" clip-rule="evenodd" d="M241.962 330.539C243.092 332.896 244.025 334.566 244.811 335.548C249.378 341.539 254.092 344.485 257.578 343.945C264.109 342.963 261.949 338.936 263.815 337.07C265.042 335.843 265.681 337.119 265.681 340.95L262.833 354.356L240.489 339.133L241.962 330.539Z" fill="#242441"/>
</g>
<path fill-rule="evenodd" clip-rule="evenodd" d="M237.225 350.684C236.881 353.483 236.979 355.054 237.568 355.398C238.403 355.889 247.832 361.094 253.528 354.563C255.541 352.304 257.653 350.438 257.211 351.224C256.965 351.715 255.099 354.023 251.662 358.246L246.457 360.112L239.385 358.246L237.028 356.085L237.225 350.684Z" fill="#00B780"/>
<path d="M306.413 333.261C320.85 330.363 332.439 324.029 341.18 314.306" stroke="#00B780" stroke-width="0.704" stroke-linecap="round"/>
<path d="M235.749 343.18C233.932 342.002 233.244 339.596 233.588 335.913" stroke="#0A357B" stroke-width="0.704" stroke-linecap="round"/>
<path d="M373.033 446.733C373.962 446.432 374.225 444.682 373.622 442.824C373.018 440.967 371.777 439.706 370.848 440.008C369.919 440.31 369.656 442.06 370.259 443.917C370.862 445.774 372.104 447.035 373.033 446.733Z" stroke="#0F58BA" stroke-width="1.76"/>
<path fill-rule="evenodd" clip-rule="evenodd" d="M162.826 528.361L153.495 534.794C150.254 537.003 146.031 537.249 142.594 535.334L142.299 535.137C139.107 533.37 137.978 529.392 139.696 526.2C139.844 525.905 140.04 525.66 140.237 525.414C142.545 522.37 145.54 521.044 149.223 521.289C155.018 521.781 159.585 524.138 162.826 528.361Z" fill="#0F58BA"/>
<path fill-rule="evenodd" clip-rule="evenodd" d="M266.293 476.749L371.135 442.62C371.675 442.473 372.215 442.718 372.412 443.259C372.608 443.75 372.314 444.29 371.823 444.486L267.128 480.58C266.195 480.874 265.213 480.432 264.918 479.499C264.918 479.45 264.869 479.352 264.869 479.303C264.623 478.222 265.213 477.093 266.293 476.749Z" fill="#0F58BA"/>
<path d="M42.3677 508.767C45.6493 508.767 48.3095 506.107 48.3095 502.825C48.3095 499.544 45.6493 496.883 42.3677 496.883C39.0861 496.883 36.4258 499.544 36.4258 502.825C36.4258 506.107 39.0861 508.767 42.3677 508.767Z" fill="white"/>
<path d="M53.6622 441.148C58.8152 441.148 62.9925 436.97 62.9925 431.818C62.9925 426.665 58.8152 422.487 53.6622 422.487C48.5093 422.487 44.332 426.665 44.332 431.818C44.332 436.97 48.5093 441.148 53.6622 441.148Z" fill="white"/>
<path d="M311.324 310.77C313.548 310.77 315.351 308.967 315.351 306.744C315.351 304.52 313.548 302.717 311.324 302.717C309.1 302.717 307.297 304.52 307.297 306.744C307.297 308.967 309.1 310.77 311.324 310.77Z" fill="white"/>
<path d="M360.135 287.542C361.247 287.542 362.149 286.641 362.149 285.529C362.149 284.417 361.247 283.516 360.135 283.516C359.024 283.516 358.122 284.417 358.122 285.529C358.122 286.641 359.024 287.542 360.135 287.542Z" fill="white"/>
<path d="M399.813 367.488C402.037 367.488 403.84 365.685 403.84 363.461C403.84 361.237 402.037 359.435 399.813 359.435C397.589 359.435 395.786 361.237 395.786 363.461C395.786 365.685 397.589 367.488 399.813 367.488Z" fill="#ACE1FE"/>
<path d="M365.487 406.92C366.599 406.92 367.501 406.019 367.501 404.907C367.501 403.795 366.599 402.894 365.487 402.894C364.376 402.894 363.474 403.795 363.474 404.907C363.474 406.019 364.376 406.92 365.487 406.92Z" fill="#ACE1FE"/>
<path d="M424.416 519.129C426.64 519.129 428.443 517.326 428.443 515.102C428.443 512.878 426.64 511.075 424.416 511.075C422.192 511.075 420.389 512.878 420.389 515.102C420.389 517.326 422.192 519.129 424.416 519.129Z" fill="#ACE1FE"/>
<path d="M250.628 329.234L254.36 334.096" stroke="#242441" stroke-width="0.704" stroke-linecap="round"/>
<path d="M262.414 340.283C263.739 339.055 264.574 337.484 264.918 335.569" stroke="#242441" stroke-width="0.704" stroke-linecap="round"/>
<path d="M240.561 360.073C245.029 361.055 248.663 360.613 251.462 358.747" stroke="#242441" stroke-width="0.704" stroke-linecap="round"/>
<path d="M258.534 344.801C260.645 345.783 261.676 347.747 261.578 350.694" stroke="#242441" stroke-width="0.704" stroke-linecap="round"/>
<path d="M265.458 342.886C270.369 338.515 275.77 335.913 281.663 335.127C287.556 334.341 295.413 333.997 305.332 334.047" stroke="white" stroke-width="0.704" stroke-linecap="round"/>
<path d="M212.865 382.809C216.842 380.845 219.543 378.733 220.918 376.425C222.293 374.117 223.717 369.501 225.092 362.479" stroke="#242441" stroke-width="0.704" stroke-linecap="round"/>
<path d="M250.972 410.063L265.753 380.55" stroke="#242441" stroke-width="0.704" stroke-linecap="round"/>
<path d="M263.396 419.639L284.069 422.487" stroke="#242441" stroke-width="0.704" stroke-linecap="round"/>
<path d="M227.303 334.096C227.843 330.757 229.758 328.891 232.999 328.547" stroke="#0A357B" stroke-width="0.704" stroke-linecap="round"/>
<path d="M225.977 329.872C226.32 328.89 226.762 328.104 227.302 327.515C227.843 326.926 228.825 326.68 230.151 326.68" stroke="#0A357B" stroke-width="0.704" stroke-linecap="round"/>
<path d="M276.602 463.609C279.929 463.108 281.828 461.207 282.249 457.955" stroke="#0A357B" stroke-width="0.704" stroke-linecap="round"/>
<path d="M280.751 464.996C281.732 464.663 282.522 464.229 283.119 463.695C283.716 463.16 283.983 462.177 284.016 460.846" stroke="#0A357B" stroke-width="0.704" stroke-linecap="round"/>
<path d="M169.013 523.99L243.753 471.004" stroke="white" stroke-width="0.704" stroke-linecap="round"/>
<path d="M106.354 379.716L118.09 466.634" stroke="white" stroke-width="0.704" stroke-linecap="round"/>
</g>
<defs>
<clipPath id="clip0">
<rect width="450" height="565" fill="white"/>
</clipPath>
</defs>
</svg>
